# Blender v2.79 (sub 0) OBJ File: 'mimic.blend'
# www.blender.org
mtllib mimic.mtl
o Cylinder.003
v -0.125429 3.029428 1.881064
v -0.125429 3.029428 1.718936
v 0.450606 2.933770 1.881064
v 0.450606 2.933770 1.718936
v 0.883577 2.541646 1.881064
v 0.883577 2.541646 1.718936
v -0.987787 2.313634 1.881064
v -0.987787 2.313634 1.718936
v -0.661641 2.798250 1.881064
v -0.661641 2.798250 1.718936
v -0.994292 2.010327 1.718936
v 1.027580 2.008778 1.718936
v -0.994377 2.006397 1.881064
v 1.028864 2.004028 1.881064
v 1.029231 2.002667 1.881064
v 0.990627 2.145519 1.721444
vn 0.1638 0.9865 0.0000
vn 0.6713 0.7412 0.0000
vn 0.9654 0.2609 0.0000
vn -0.0000 0.0000 -1.0000
vn -0.8296 0.5583 0.0000
vn -0.3959 0.9183 0.0000
vn 0.0000 -0.0000 1.0000
vn -0.9998 0.0214 0.0000
vn -0.0013 -0.9996 -0.0268
usemtl None
s off
f 1//1 3//1 4//1 2//1
f 3//2 5//2 6//2 4//2
f 5//3 14//3 16//3 6//3
f 4//4 6//4 12//4 11//4 8//4 10//4 2//4
f 7//5 9//5 10//5 8//5
f 9//6 1//6 2//6 10//6
f 1//7 9//7 7//7 13//7 14//7 5//7 3//7
f 13//8 7//8 8//8 11//8
f 14//3 15//3 12//3 6//3 16//3
f 14//9 13//9 11//9 12//9 15//9
o Cylinder.002
v -0.125429 3.029428 -1.704082
v -0.125429 3.029428 -1.866210
v 0.450606 2.933770 -1.704082
v 0.450606 2.933770 -1.866210
v 0.883577 2.541646 -1.704082
v 0.883577 2.541646 -1.866210
v -0.987787 2.313634 -1.704082
v -0.987787 2.313634 -1.866210
v -0.661641 2.798250 -1.704082
v -0.661641 2.798250 -1.866210
v -0.994292 2.010327 -1.866210
v 1.027580 2.008778 -1.866210
v -0.994377 2.006397 -1.704082
v 1.028864 2.004028 -1.704082
v 1.029231 2.002667 -1.704082
v 0.990627 2.145519 -1.863702
vn 0.1638 0.9865 0.0000
vn 0.6713 0.7412 0.0000
vn 0.9654 0.2609 0.0000
vn 0.0000 0.0000 -1.0000
vn -0.8296 0.5583 0.0000
vn -0.3959 0.9183 0.0000
vn 0.0000 -0.0000 1.0000
vn -0.9998 0.0214 0.0000
vn -0.0013 -0.9996 -0.0268
usemtl None
s off
f 17//10 19//10 20//10 18//10
f 19//11 21//11 22//11 20//11
f 21//12 30//12 32//12 22//12
f 20//13 22//13 28//13 27//13 24//13 26//13 18//13
f 23//14 25//14 26//14 24//14
f 25//15 17//15 18//15 26//15
f 17//16 25//16 23//16 29//16 30//16 21//16 19//16
f 29//17 23//17 24//17 27//17
f 30//12 31//12 28//12 22//12 32//12
f 30//18 29//18 27//18 28//18 31//18
o Cube.004
v -1.120643 -0.004000 1.917510
v -1.120643 2.004000 1.917510
v -1.120643 -0.004000 1.677022
v -1.120643 2.004000 1.677022
v -0.879357 -0.004000 1.917510
v -0.879357 2.004000 1.917510
v -0.879357 -0.004000 1.677022
v -0.879357 2.004000 1.677022
vn -1.0000 0.0000 0.0000
vn 0.0000 0.0000 -1.0000
vn 1.0000 0.0000 0.0000
vn 0.0000 0.0000 1.0000
vn 0.0000 -1.0000 0.0000
vn 0.0000 1.0000 0.0000
usemtl None
s off
f 33//19 34//19 36//19 35//19
f 35//20 36//20 40//20 39//20
f 39//21 40//21 38//21 37//21
f 37//22 38//22 34//22 33//22
f 35//23 39//23 37//23 33//23
f 40//24 36//24 34//24 38//24
o Cube.003
v -0.879357 -0.004000 -1.890644
v -0.879357 2.004000 -1.890644
v -0.879357 -0.004000 -1.650156
v -0.879357 2.004000 -1.650156
v -1.120643 -0.004000 -1.890644
v -1.120643 2.004000 -1.890644
v -1.120643 -0.004000 -1.650156
v -1.120643 2.004000 -1.650156
vn 1.0000 0.0000 0.0000
vn 0.0000 0.0000 1.0000
vn -1.0000 0.0000 0.0000
vn 0.0000 0.0000 -1.0000
vn 0.0000 -1.0000 0.0000
vn 0.0000 1.0000 0.0000
usemtl None
s off
f 41//25 42//25 44//25 43//25
f 43//26 44//26 48//26 47//26
f 47//27 48//27 46//27 45//27
f 45//28 46//28 42//28 41//28
f 43//29 47//29 45//29 41//29
f 48//30 44//30 42//30 46//30
o Cube.002
v 1.120643 -0.004247 -1.892362
v 1.120643 2.004247 -1.892362
v 1.120643 -0.004247 -1.651874
v 1.120643 2.004247 -1.651874
v 0.879357 -0.004247 -1.892362
v 0.879357 2.004247 -1.892362
v 0.879357 -0.004247 -1.651874
v 0.879357 2.004247 -1.651874
vn 1.0000 0.0000 0.0000
vn 0.0000 0.0000 1.0000
vn -1.0000 0.0000 0.0000
vn 0.0000 0.0000 -1.0000
vn 0.0000 -1.0000 0.0000
vn 0.0000 1.0000 0.0000
usemtl None
s off
f 49//31 50//31 52//31 51//31
f 51//32 52//32 56//32 55//32
f 55//33 56//33 54//33 53//33
f 53//34 54//34 50//34 49//34
f 51//35 55//35 53//35 49//35
f 56//36 52//36 50//36 54//36
o Cube.001
v 1.120643 -0.004000 1.681205
v 1.120643 2.004000 1.681205
v 1.120643 -0.004000 1.921693
v 1.120643 2.004000 1.921693
v 0.879357 -0.004000 1.681205
v 0.879357 2.004000 1.681205
v 0.879357 -0.004000 1.921693
v 0.879357 2.004000 1.921693
vn 1.0000 0.0000 0.0000
vn 0.0000 0.0000 1.0000
vn -1.0000 0.0000 0.0000
vn 0.0000 0.0000 -1.0000
vn 0.0000 -1.0000 0.0000
vn 0.0000 1.0000 0.0000
usemtl None
s off
f 57//37 58//37 60//37 59//37
f 59//38 60//38 64//38 63//38
f 63//39 64//39 62//39 61//39
f 61//40 62//40 58//40 57//40
f 59//41 63//41 61//41 57//41
f 64//42 60//42 58//42 62//42
o Cylinder
v -0.123241 2.935474 -1.851165
v -0.123241 2.935474 1.879944
v 0.432224 2.843232 -1.851165
v 0.432224 2.843232 1.879944
v 0.849733 2.465111 -1.851165
v 0.849733 2.465110 1.879944
v -0.954805 2.245240 -1.851165
v -0.954805 2.245240 1.879944
v -0.640306 2.712552 -1.851165
v -0.640306 2.712551 1.879944
v -0.960163 1.995455 1.879944
v 0.979040 1.986626 1.879944
v -0.959818 2.011518 -1.851165
v 0.970331 2.018851 -1.851165
v 0.974692 2.002714 -1.851165
vn 0.1638 0.9865 0.0000
vn 0.6713 0.7412 0.0000
vn 0.9654 0.2609 0.0000
vn 0.0000 0.0000 1.0000
vn -0.8296 0.5583 0.0000
vn -0.3959 0.9183 0.0000
vn 0.0000 0.0000 -1.0000
vn -0.9998 0.0214 0.0000
vn -0.0046 -1.0000 -0.0043
usemtl None
s off
f 65//43 66//43 68//43 67//43
f 67//44 68//44 70//44 69//44
f 69//45 70//45 76//45 78//45
f 68//46 66//46 74//46 72//46 75//46 76//46 70//46
f 71//47 72//47 74//47 73//47
f 73//48 74//48 66//48 65//48
f 65//49 67//49 69//49 78//49 79//49 77//49 71//49 73//49
f 77//50 75//50 72//50 71//50
f 76//51 75//51 77//51 79//51
o Torus
v 1.127773 1.085736 -0.285259
v 1.083930 1.091793 -0.266263
v 1.072037 1.100997 -0.220508
v 1.101050 1.106417 -0.182447
v 1.149121 1.103973 -0.180743
v 1.180052 1.095504 -0.216677
v 1.170551 1.087388 -0.263191
v 1.116596 0.910225 -0.221820
v 1.073636 0.928564 -0.210083
v 1.063726 0.965367 -0.180638
v 1.094328 0.992921 -0.155658
v 1.142399 0.990476 -0.153953
v 1.171740 0.959874 -0.176807
v 1.160257 0.924159 -0.207011
v 1.107057 0.847382 -0.042948
v 1.064815 0.870454 -0.044681
v 1.056518 0.917890 -0.045501
v 1.088415 0.953970 -0.044792
v 1.136486 0.951526 -0.043087
v 1.164533 0.912397 -0.041670
v 1.151435 0.866049 -0.041609
v 1.104155 0.914215 0.134703
v 1.062132 0.932254 0.119593
v 1.054326 0.968382 0.088714
v 1.086617 0.995394 0.065318
v 1.134687 0.992949 0.067023
v 1.162340 0.962889 0.092545
v 1.148752 0.927849 0.122666
v 1.111791 1.102652 0.189625
v 1.069384 1.108249 0.167489
v 1.060716 1.116418 0.120822
v 1.092315 1.121009 0.084765
v 1.140386 1.118564 0.086469
v 1.168730 1.110925 0.124652
v 1.156004 1.103843 0.170561
vn 0.0443 0.9854 0.1643
vn -0.3900 -0.2845 -0.8757
vn -0.9641 -0.0249 -0.2643
vn -0.7628 0.2097 0.6117
vn -0.0228 0.2309 0.9727
vn 0.7350 0.1335 0.6648
vn 0.9729 -0.1234 -0.1956
vn 0.4201 -0.3257 -0.8470
vn -0.4444 -0.8375 -0.3179
vn -0.9784 -0.1731 -0.1130
vn -0.7376 0.6484 0.1885
vn 0.0361 0.9422 0.3330
vn 0.7844 0.5710 0.2424
vn 0.9614 -0.2717 -0.0442
vn 0.3786 -0.8794 -0.2888
vn -0.4661 -0.8305 0.3048
vn -0.9840 -0.1713 0.0484
vn -0.7222 0.6434 -0.2539
vn 0.0600 0.9346 -0.3506
vn 0.7998 0.5660 -0.1999
vn 0.9557 -0.2699 0.1172
vn 0.3569 -0.8724 0.3340
vn -0.4455 -0.2262 0.8663
vn -0.9792 -0.0089 0.2029
vn -0.7137 0.1600 -0.6819
vn 0.0427 0.1510 -0.9876
vn 0.7726 0.0844 -0.6292
vn 0.9564 -0.1073 0.2716
vn 0.3579 -0.2671 0.8947
vn 0.0564 0.9815 -0.1828
usemtl None
s off
f 114//52 113//52 112//52 111//52 110//52 109//52 108//52
f 80//53 87//53 88//53 81//53
f 81//54 88//54 89//54 82//54
f 82//55 89//55 90//55 83//55
f 83//56 90//56 91//56 84//56
f 84//57 91//57 92//57 85//57
f 85//58 92//58 93//58 86//58
f 86//59 93//59 87//59 80//59
f 87//60 94//60 95//60 88//60
f 88//61 95//61 96//61 89//61
f 89//62 96//62 97//62 90//62
f 90//63 97//63 98//63 91//63
f 91//64 98//64 99//64 92//64
f 92//65 99//65 100//65 93//65
f 93//66 100//66 94//66 87//66
f 94//67 101//67 102//67 95//67
f 95//68 102//68 103//68 96//68
f 96//69 103//69 104//69 97//69
f 97//70 104//70 105//70 98//70
f 98//71 105//71 106//71 99//71
f 99//72 106//72 107//72 100//72
f 100//73 107//73 101//73 94//73
f 101//74 108//74 109//74 102//74
f 102//75 109//75 110//75 103//75
f 103//76 110//76 111//76 104//76
f 104//77 111//77 112//77 105//77
f 105//78 112//78 113//78 106//78
f 106//79 113//79 114//79 107//79
f 107//80 114//80 108//80 101//80
f 80//81 81//81 82//81 83//81 84//81 85//81 86//81
o Icosphere.001
v 1.022276 1.633143 0.264186
v 0.859677 1.508930 0.146053
v 1.084381 1.508930 0.073041
v 1.223258 1.508929 0.264186
v 1.084381 1.508930 0.455331
v 0.859677 1.508930 0.382319
v 0.960170 1.307945 0.073041
v 1.184874 1.307945 0.146053
v 1.184874 1.307945 0.382319
v 0.960170 1.307945 0.455331
v 0.821294 1.307946 0.264186
v 1.022276 1.183733 0.264186
v 1.058780 1.599584 0.151835
v 0.926703 1.599584 0.194750
v 0.963208 1.526574 0.082397
v 0.831131 1.526573 0.264186
v 0.926703 1.599584 0.333623
v 1.140410 1.599584 0.264186
v 1.176915 1.526574 0.151835
v 1.058780 1.599584 0.376538
v 1.176915 1.526574 0.376538
v 0.963208 1.526574 0.445975
v 0.808568 1.408438 0.194750
v 0.808568 1.408438 0.333623
v 1.022276 1.408438 0.039481
v 0.890197 1.408438 0.082396
v 1.235983 1.408438 0.194750
v 1.154354 1.408438 0.082396
v 1.154354 1.408438 0.445976
v 1.235983 1.408438 0.333623
v 0.890197 1.408438 0.445976
v 1.022276 1.408438 0.488891
v 0.867636 1.290302 0.151835
v 1.081344 1.290302 0.082397
v 1.213420 1.290303 0.264186
v 1.081344 1.290302 0.445975
v 0.867636 1.290302 0.376538
v 0.985771 1.217292 0.151835
v 0.904141 1.217292 0.264186
v 1.117848 1.217292 0.194750
v 1.117848 1.217292 0.333623
v 0.985771 1.217292 0.376538
vn -0.1024 0.9435 -0.3151
vn -0.7002 0.6617 -0.2680
vn 0.2680 0.9435 -0.1947
vn 0.2680 0.9435 0.1947
vn -0.1024 0.9435 0.3151
vn -0.9050 0.3304 -0.2680
vn -0.0247 0.3304 -0.9435
vn 0.8897 0.3304 -0.3151
vn 0.5746 0.3304 0.7488
vn -0.5346 0.3304 0.7779
vn -0.8026 0.1256 -0.5831
vn 0.3066 0.1256 -0.9435
vn 0.9921 0.1256 0.0000
vn 0.3066 0.1256 0.9435
vn -0.8026 0.1256 0.5831
vn -0.4089 -0.6617 -0.6284
vn 0.4713 -0.6617 -0.5831
vn 0.7002 -0.6617 0.2680
vn -0.0385 -0.6617 0.7488
vn -0.7240 -0.6617 0.1947
vn -0.2680 -0.9435 0.1947
vn -0.4911 -0.7947 0.3568
vn -0.4089 -0.6617 0.6284
vn 0.1024 -0.9435 0.3151
vn 0.1876 -0.7947 0.5773
vn 0.4713 -0.6617 0.5831
vn 0.3313 -0.9435 0.0000
vn 0.6071 -0.7947 0.0000
vn 0.7002 -0.6617 -0.2680
vn 0.1024 -0.9435 -0.3151
vn 0.1876 -0.7947 -0.5773
vn -0.0385 -0.6617 -0.7488
vn -0.2680 -0.9435 -0.1947
vn -0.4911 -0.7947 -0.3568
vn -0.7240 -0.6617 -0.1947
vn -0.8897 -0.3304 0.3151
vn -0.7947 -0.1876 0.5773
vn -0.5746 -0.3304 0.7488
vn 0.0247 -0.3304 0.9435
vn 0.3035 -0.1876 0.9342
vn 0.5346 -0.3304 0.7779
vn 0.9050 -0.3304 0.2680
vn 0.9822 -0.1876 0.0000
vn 0.9050 -0.3304 -0.2680
vn 0.5346 -0.3304 -0.7779
vn 0.3035 -0.1876 -0.9342
vn 0.0247 -0.3304 -0.9435
vn -0.5746 -0.3304 -0.7488
vn -0.7947 -0.1876 -0.5773
vn -0.8897 -0.3304 -0.3151
vn -0.3066 -0.1256 0.9435
vn -0.3035 0.1876 0.9342
vn -0.0247 0.3304 0.9435
vn 0.8026 -0.1256 0.5831
vn 0.7947 0.1876 0.5773
vn 0.8897 0.3304 0.3151
vn 0.8026 -0.1256 -0.5831
vn 0.7947 0.1876 -0.5773
vn 0.5746 0.3304 -0.7488
vn -0.3066 -0.1256 -0.9435
vn -0.3035 0.1876 -0.9342
vn -0.5346 0.3304 -0.7779
vn -0.9921 -0.1256 0.0000
vn -0.9822 0.1876 0.0000
vn -0.9050 0.3304 0.2680
vn -0.4713 0.6617 0.5831
vn -0.1876 0.7947 0.5773
vn 0.0385 0.6617 0.7488
vn 0.4089 0.6617 0.6284
vn 0.4911 0.7947 0.3568
vn 0.7240 0.6617 0.1947
vn 0.7240 0.6617 -0.1947
vn 0.4911 0.7947 -0.3568
vn 0.4089 0.6617 -0.6284
vn -0.7002 0.6617 0.2680
vn -0.6071 0.7947 0.0000
vn -0.3313 0.9435 0.0000
vn 0.0385 0.6617 -0.7488
vn -0.1876 0.7947 -0.5773
vn -0.4713 0.6617 -0.5831
usemtl None
s off
f 115//82 127//82 128//82
f 116//83 130//83 128//83
f 115//84 132//84 127//84
f 115//85 134//85 132//85
f 115//86 131//86 134//86
f 116//87 137//87 130//87
f 117//88 139//88 129//88
f 118//89 141//89 133//89
f 119//90 143//90 135//90
f 120//91 145//91 136//91
f 116//92 140//92 137//92
f 117//93 142//93 139//93
f 118//94 144//94 141//94
f 119//95 146//95 143//95
f 120//96 138//96 145//96
f 121//97 152//97 147//97
f 122//98 154//98 148//98
f 123//99 155//99 149//99
f 124//100 156//100 150//100
f 125//101 153//101 151//101
f 153//102 126//102 156//102
f 153//103 156//103 151//103
f 151//104 156//104 124//104
f 156//105 126//105 155//105
f 156//106 155//106 150//106
f 150//107 155//107 123//107
f 155//108 126//108 154//108
f 155//109 154//109 149//109
f 149//110 154//110 122//110
f 154//111 126//111 152//111
f 154//112 152//112 148//112
f 148//113 152//113 121//113
f 152//114 126//114 153//114
f 152//115 153//115 147//115
f 147//116 153//116 125//116
f 138//117 125//117 151//117
f 138//118 151//118 145//118
f 145//119 151//119 124//119
f 146//120 124//120 150//120
f 146//121 150//121 143//121
f 143//122 150//122 123//122
f 144//123 123//123 149//123
f 144//124 149//124 141//124
f 141//125 149//125 122//125
f 142//126 122//126 148//126
f 142//127 148//127 139//127
f 139//128 148//128 121//128
f 140//129 121//129 147//129
f 140//130 147//130 137//130
f 137//131 147//131 125//131
f 145//132 124//132 146//132
f 145//133 146//133 136//133
f 136//134 146//134 119//134
f 143//135 123//135 144//135
f 143//136 144//136 135//136
f 135//137 144//137 118//137
f 141//138 122//138 142//138
f 141//139 142//139 133//139
f 133//140 142//140 117//140
f 139//141 121//141 140//141
f 139//142 140//142 129//142
f 129//143 140//143 116//143
f 137//144 125//144 138//144
f 137//145 138//145 130//145
f 130//146 138//146 120//146
f 131//147 120//147 136//147
f 131//148 136//148 134//148
f 134//149 136//149 119//149
f 134//150 119//150 135//150
f 134//151 135//151 132//151
f 132//152 135//152 118//152
f 132//153 118//153 133//153
f 132//154 133//154 127//154
f 127//155 133//155 117//155
f 130//156 120//156 131//156
f 130//157 131//157 128//157
f 128//158 131//158 115//158
f 127//159 117//159 129//159
f 127//160 129//160 128//160
f 128//161 129//161 116//161
o Icosphere
v 1.022276 1.633143 -0.344945
v 0.859677 1.508930 -0.463078
v 1.084381 1.508930 -0.536090
v 1.223258 1.508929 -0.344945
v 1.084381 1.508930 -0.153799
v 0.859677 1.508930 -0.226811
v 0.960170 1.307945 -0.536090
v 1.184874 1.307945 -0.463078
v 1.184874 1.307945 -0.226811
v 0.960170 1.307945 -0.153799
v 0.821294 1.307946 -0.344945
v 1.022276 1.183733 -0.344945
v 1.058780 1.599584 -0.457296
v 0.926703 1.599584 -0.414381
v 0.963208 1.526574 -0.526733
v 0.831131 1.526573 -0.344945
v 0.926703 1.599584 -0.275508
v 1.140410 1.599584 -0.344945
v 1.176915 1.526574 -0.457296
v 1.058780 1.599584 -0.232593
v 1.176915 1.526574 -0.232593
v 0.963208 1.526574 -0.163156
v 0.808568 1.408438 -0.414381
v 0.808568 1.408438 -0.275508
v 1.022276 1.408438 -0.569649
v 0.890197 1.408438 -0.526735
v 1.235983 1.408438 -0.414381
v 1.154354 1.408438 -0.526735
v 1.154354 1.408438 -0.163154
v 1.235983 1.408438 -0.275508
v 0.890197 1.408438 -0.163154
v 1.022276 1.408438 -0.120240
v 0.867636 1.290302 -0.457296
v 1.081344 1.290302 -0.526733
v 1.213420 1.290303 -0.344945
v 1.081344 1.290302 -0.163156
v 0.867636 1.290302 -0.232593
v 0.985771 1.217292 -0.457296
v 0.904141 1.217292 -0.344945
v 1.117848 1.217292 -0.414381
v 1.117848 1.217292 -0.275508
v 0.985771 1.217292 -0.232593
vn -0.1024 0.9435 -0.3151
vn -0.7002 0.6617 -0.2680
vn 0.2680 0.9435 -0.1947
vn 0.2680 0.9435 0.1947
vn -0.1024 0.9435 0.3151
vn -0.9050 0.3304 -0.2680
vn -0.0247 0.3304 -0.9435
vn 0.8897 0.3304 -0.3151
vn 0.5746 0.3304 0.7488
vn -0.5346 0.3304 0.7779
vn -0.8026 0.1256 -0.5831
vn 0.3066 0.1256 -0.9435
vn 0.9921 0.1256 0.0000
vn 0.3066 0.1256 0.9435
vn -0.8026 0.1256 0.5831
vn -0.4089 -0.6617 -0.6284
vn 0.4713 -0.6617 -0.5831
vn 0.7002 -0.6617 0.2680
vn -0.0385 -0.6617 0.7488
vn -0.7240 -0.6617 0.1947
vn -0.2680 -0.9435 0.1947
vn -0.4911 -0.7947 0.3568
vn -0.4089 -0.6617 0.6284
vn 0.1024 -0.9435 0.3151
vn 0.1876 -0.7947 0.5773
vn 0.4713 -0.6617 0.5831
vn 0.3313 -0.9435 0.0000
vn 0.6071 -0.7947 0.0000
vn 0.7002 -0.6617 -0.2680
vn 0.1024 -0.9435 -0.3151
vn 0.1876 -0.7947 -0.5773
vn -0.0385 -0.6617 -0.7488
vn -0.2680 -0.9435 -0.1947
vn -0.4911 -0.7947 -0.3568
vn -0.7240 -0.6617 -0.1947
vn -0.8897 -0.3304 0.3151
vn -0.7947 -0.1876 0.5773
vn -0.5746 -0.3304 0.7488
vn 0.0247 -0.3304 0.9435
vn 0.3035 -0.1876 0.9342
vn 0.5346 -0.3304 0.7779
vn 0.9050 -0.3304 0.2680
vn 0.9822 -0.1876 0.0000
vn 0.9050 -0.3304 -0.2680
vn 0.5346 -0.3304 -0.7779
vn 0.3035 -0.1876 -0.9342
vn 0.0247 -0.3304 -0.9435
vn -0.5746 -0.3304 -0.7488
vn -0.7947 -0.1876 -0.5773
vn -0.8897 -0.3304 -0.3151
vn -0.3066 -0.1256 0.9435
vn -0.3035 0.1876 0.9342
vn -0.0247 0.3304 0.9435
vn 0.8026 -0.1256 0.5831
vn 0.7947 0.1876 0.5773
vn 0.8897 0.3304 0.3151
vn 0.8026 -0.1256 -0.5831
vn 0.7947 0.1876 -0.5773
vn 0.5746 0.3304 -0.7488
vn -0.3066 -0.1256 -0.9435
vn -0.3035 0.1876 -0.9342
vn -0.5346 0.3304 -0.7779
vn -0.9921 -0.1256 0.0000
vn -0.9822 0.1876 0.0000
vn -0.9050 0.3304 0.2680
vn -0.4713 0.6617 0.5831
vn -0.1876 0.7947 0.5773
vn 0.0385 0.6617 0.7488
vn 0.4089 0.6617 0.6284
vn 0.4911 0.7947 0.3568
vn 0.7240 0.6617 0.1947
vn 0.7240 0.6617 -0.1947
vn 0.4911 0.7947 -0.3568
vn 0.4089 0.6617 -0.6284
vn -0.7002 0.6617 0.2680
vn -0.6071 0.7947 0.0000
vn -0.3313 0.9435 0.0000
vn 0.0385 0.6617 -0.7488
vn -0.1876 0.7947 -0.5773
vn -0.4713 0.6617 -0.5831
usemtl None
s off
f 157//162 169//162 170//162
f 158//163 172//163 170//163
f 157//164 174//164 169//164
f 157//165 176//165 174//165
f 157//166 173//166 176//166
f 158//167 179//167 172//167
f 159//168 181//168 171//168
f 160//169 183//169 175//169
f 161//170 185//170 177//170
f 162//171 187//171 178//171
f 158//172 182//172 179//172
f 159//173 184//173 181//173
f 160//174 186//174 183//174
f 161//175 188//175 185//175
f 162//176 180//176 187//176
f 163//177 194//177 189//177
f 164//178 196//178 190//178
f 165//179 197//179 191//179
f 166//180 198//180 192//180
f 167//181 195//181 193//181
f 195//182 168//182 198//182
f 195//183 198//183 193//183
f 193//184 198//184 166//184
f 198//185 168//185 197//185
f 198//186 197//186 192//186
f 192//187 197//187 165//187
f 197//188 168//188 196//188
f 197//189 196//189 191//189
f 191//190 196//190 164//190
f 196//191 168//191 194//191
f 196//192 194//192 190//192
f 190//193 194//193 163//193
f 194//194 168//194 195//194
f 194//195 195//195 189//195
f 189//196 195//196 167//196
f 180//197 167//197 193//197
f 180//198 193//198 187//198
f 187//199 193//199 166//199
f 188//200 166//200 192//200
f 188//201 192//201 185//201
f 185//202 192//202 165//202
f 186//203 165//203 191//203
f 186//204 191//204 183//204
f 183//205 191//205 164//205
f 184//206 164//206 190//206
f 184//207 190//207 181//207
f 181//208 190//208 163//208
f 182//209 163//209 189//209
f 182//210 189//210 179//210
f 179//211 189//211 167//211
f 187//212 166//212 188//212
f 187//213 188//213 178//213
f 178//214 188//214 161//214
f 185//215 165//215 186//215
f 185//216 186//216 177//216
f 177//217 186//217 160//217
f 183//218 164//218 184//218
f 183//219 184//219 175//219
f 175//220 184//220 159//220
f 181//221 163//221 182//221
f 181//222 182//222 171//222
f 171//223 182//223 158//223
f 179//224 167//224 180//224
f 179//225 180//225 172//225
f 172//226 180//226 162//226
f 173//227 162//227 178//227
f 173//228 178//228 176//228
f 176//229 178//229 161//229
f 176//230 161//230 177//230
f 176//231 177//231 174//231
f 174//232 177//232 160//232
f 174//233 160//233 175//233
f 174//234 175//234 169//234
f 169//235 175//235 159//235
f 172//236 162//236 173//236
f 172//237 173//237 170//237
f 170//238 173//238 157//238
f 169//239 159//239 171//239
f 169//240 171//240 170//240
f 170//241 171//241 158//241
o Cube
v 1.000000 -0.002739 -1.895970
v 1.000000 -0.002739 1.923548
v -1.000000 -0.002739 1.923548
v -1.000000 -0.002739 -1.895971
v 1.000000 1.997261 -1.895969
v 0.999999 1.997261 1.923549
v -1.000000 1.997261 1.923548
v -1.000000 1.997261 -1.895970
vn 0.0000 -1.0000 0.0000
vn 0.0000 1.0000 0.0000
vn 1.0000 0.0000 0.0000
vn -0.0000 -0.0000 1.0000
vn -1.0000 -0.0000 -0.0000
vn 0.0000 0.0000 -1.0000
usemtl Material
s off
f 199//242 200//242 201//242 202//242
f 203//243 206//243 205//243 204//243
f 199//244 203//244 204//244 200//244
f 200//245 204//245 205//245 201//245
f 201//246 205//246 206//246 202//246
f 203//247 199//247 202//247 206//247
