# Blender v2.79 (sub 0) OBJ File: 'slime.blend'
# www.blender.org
mtllib slime.mtl
o Torus.003
v 0.239948 2.540255 1.496522
v 0.216129 2.528925 1.526148
v 0.230336 2.558625 1.462706
v -0.140426 2.558490 1.419883
v -0.131051 2.545549 1.456188
v -0.116845 2.575249 1.392746
v -0.088275 2.419348 1.366422
v -0.085068 2.415947 1.405812
v -0.063656 2.438007 1.430879
v -0.040163 2.468916 1.422746
v -0.032279 2.485398 1.387538
v -0.045941 2.475043 1.351767
v -0.070862 2.445647 1.342370
v 0.057710 2.363796 1.373105
v 0.049924 2.364578 1.411992
v 0.046635 2.396038 1.435928
v 0.050320 2.434484 1.426888
v 0.058204 2.450967 1.391680
v 0.064350 2.433074 1.356816
v 0.064130 2.394279 1.348550
v 0.199451 2.405384 1.424314
v 0.180991 2.403035 1.459345
v 0.153719 2.427458 1.474616
v 0.138171 2.460261 1.458627
v 0.146055 2.476743 1.423419
v 0.171434 2.464494 1.395504
v 0.195198 2.432735 1.395902
v -0.092217 2.540664 1.472542
v 0.150383 2.551003 1.459153
v -0.042799 2.560154 1.420179
v 0.144461 2.537809 1.496340
v -0.052942 2.547164 1.456516
v 0.173721 2.527983 1.526155
v -0.074609 2.577865 1.393484
v -0.047779 2.553776 1.438020
v 0.191747 2.565540 1.447358
v 0.142565 2.534632 1.494428
v -0.045093 2.563701 1.421326
v -0.050564 2.543487 1.455327
v 0.152549 2.554632 1.461337
v 0.147226 2.543968 1.478980
vn -0.9270 -0.3674 0.0748
vn -0.4166 -0.4473 0.7914
vn -0.7667 -0.0323 -0.6412
vn -0.3531 -0.9341 -0.0519
vn -0.2634 -0.6014 0.7543
vn 0.0410 0.2250 0.9735
vn 0.2976 0.8373 0.4586
vn 0.3441 0.8586 -0.3800
vn 0.1229 0.2062 -0.9708
vn -0.1892 -0.5915 -0.7838
vn 0.2572 -0.9638 0.0709
vn -0.1053 -0.6091 0.7861
vn -0.3924 0.2460 0.8863
vn -0.3722 0.8698 0.3238
vn -0.0893 0.8796 -0.4672
vn 0.2810 0.1985 -0.9390
vn 0.4211 -0.6211 -0.6610
vn 0.7874 -0.4519 0.4193
vn 0.0352 -0.4696 0.8822
vn -0.7751 -0.1879 0.6033
vn -0.9785 0.1376 -0.1538
vn -0.4676 0.4513 -0.7600
vn 0.4217 0.3371 -0.8418
vn 0.9478 -0.1166 -0.2969
vn 0.4607 -0.2498 0.8517
vn 0.9712 0.0397 0.2347
vn -0.8679 0.4953 0.0375
vn 0.7660 0.3888 -0.5119
vn -0.0307 0.3597 -0.9326
vn -0.0442 0.9080 0.4166
vn 0.8282 0.4130 0.3788
vn -0.0341 0.9061 0.4218
usemtl None
s off
f 4//1 7//1 8//1 5//1
f 5//2 8//2 9//2 28//2
f 6//3 13//3 7//3 4//3
f 7//4 14//4 15//4 8//4
f 8//5 15//5 16//5 9//5
f 9//6 16//6 17//6 10//6
f 10//7 17//7 18//7 11//7
f 11//8 18//8 19//8 12//8
f 12//9 19//9 20//9 13//9
f 13//10 20//10 14//10 7//10
f 14//11 21//11 22//11 15//11
f 15//12 22//12 23//12 16//12
f 16//13 23//13 24//13 17//13
f 17//14 24//14 25//14 18//14
f 18//15 25//15 26//15 19//15
f 19//16 26//16 27//16 20//16
f 20//17 27//17 21//17 14//17
f 21//18 1//18 2//18 22//18
f 22//19 2//19 33//19 23//19
f 23//20 33//20 31//20 37//20 24//20
f 24//21 37//21 41//21 29//21 25//21
f 25//22 29//22 40//22 36//22 26//22
f 26//23 36//23 3//23 27//23
f 27//24 3//24 1//24 21//24
f 32//25 28//25 9//25 10//25 39//25
f 30//26 35//26 39//26 10//26 11//26
f 29//27 41//27 40//27
f 34//28 38//28 30//28 11//28 12//28
f 6//29 34//29 12//29 13//29
f 4//30 5//30 28//30 32//30 38//30 34//30 6//30
f 39//31 35//31 32//31
f 38//31 35//31 30//31
f 2//32 1//32 3//32 36//32 40//32 31//32 33//32
f 41//27 37//27 31//27
o Sphere.001
v 0.310035 3.032117 1.110592
v 0.310035 2.905691 1.018738
v 0.310035 2.749419 1.018738
v 0.310035 2.622993 1.110592
v 0.310035 2.574703 1.259215
v 0.426233 3.032117 1.166550
v 0.498047 2.905691 1.109280
v 0.498047 2.749419 1.109280
v 0.426233 2.622993 1.166550
v 0.454931 3.032117 1.292287
v 0.544483 2.905691 1.312727
v 0.544483 2.749419 1.312727
v 0.454931 2.622993 1.292287
v 0.374520 3.032117 1.393120
v 0.414374 2.905691 1.475878
v 0.414374 2.749419 1.475878
v 0.374520 2.622993 1.393120
v 0.310035 3.080408 1.259215
v 0.245550 3.032117 1.393120
v 0.205696 2.905691 1.475878
v 0.205696 2.749419 1.475878
v 0.245550 2.622993 1.393120
v 0.165138 3.032117 1.292287
v 0.075587 2.905691 1.312727
v 0.075587 2.749419 1.312726
v 0.165138 2.622993 1.292287
v 0.193837 3.032117 1.166550
v 0.122022 2.905691 1.109280
v 0.122022 2.749419 1.109280
v 0.193837 2.622993 1.166550
vn 0.1472 -0.9407 -0.3056
vn 0.4339 0.0000 -0.9010
vn 0.1472 0.9407 -0.3056
vn 0.3630 -0.5477 -0.7538
vn 0.3630 0.5477 -0.7538
vn 0.3307 -0.9407 -0.0755
vn 0.9749 0.0000 -0.2225
vn 0.3307 0.9407 -0.0755
vn 0.8157 -0.5477 -0.1862
vn 0.8157 0.5477 -0.1862
vn 0.2652 -0.9407 0.2115
vn 0.7818 -0.0000 0.6235
vn 0.2652 0.9407 0.2115
vn 0.6541 -0.5477 0.5217
vn 0.6541 0.5477 0.5217
vn 0.0000 -0.9407 0.3392
vn 0.0000 -0.0000 1.0000
vn 0.0000 0.9407 0.3392
vn 0.0000 -0.5477 0.8367
vn 0.0000 0.5477 0.8367
vn -0.2652 -0.9407 0.2115
vn -0.7818 -0.0000 0.6235
vn -0.2652 0.9407 0.2115
vn -0.6541 -0.5477 0.5217
vn -0.6541 0.5477 0.5217
vn -0.3307 -0.9407 -0.0755
vn -0.9749 -0.0000 -0.2225
vn -0.3307 0.9407 -0.0755
vn -0.8157 -0.5477 -0.1862
vn -0.8157 0.5477 -0.1862
vn -0.1472 -0.9407 -0.3056
vn -0.4339 -0.0000 -0.9010
vn -0.1472 0.9407 -0.3056
vn -0.3630 -0.5477 -0.7538
vn -0.3630 0.5477 -0.7538
usemtl None
s off
f 46//33 45//33 50//33
f 44//34 43//34 48//34 49//34
f 42//35 59//35 47//35
f 45//36 44//36 49//36 50//36
f 43//37 42//37 47//37 48//37
f 46//38 50//38 54//38
f 49//39 48//39 52//39 53//39
f 47//40 59//40 51//40
f 50//41 49//41 53//41 54//41
f 48//42 47//42 51//42 52//42
f 46//43 54//43 58//43
f 53//44 52//44 56//44 57//44
f 51//45 59//45 55//45
f 54//46 53//46 57//46 58//46
f 52//47 51//47 55//47 56//47
f 46//48 58//48 63//48
f 57//49 56//49 61//49 62//49
f 55//50 59//50 60//50
f 58//51 57//51 62//51 63//51
f 56//52 55//52 60//52 61//52
f 46//53 63//53 67//53
f 62//54 61//54 65//54 66//54
f 60//55 59//55 64//55
f 63//56 62//56 66//56 67//56
f 61//57 60//57 64//57 65//57
f 46//58 67//58 71//58
f 66//59 65//59 69//59 70//59
f 64//60 59//60 68//60
f 67//61 66//61 70//61 71//61
f 65//62 64//62 68//62 69//62
f 46//63 71//63 45//63
f 70//64 69//64 43//64 44//64
f 68//65 59//65 42//65
f 71//66 70//66 44//66 45//66
f 69//67 68//67 42//67 43//67
o Sphere
v -0.231939 3.032117 1.110592
v -0.231939 2.905691 1.018738
v -0.231939 2.749419 1.018738
v -0.231939 2.622993 1.110592
v -0.231939 2.574703 1.259215
v -0.115741 3.032117 1.166550
v -0.043927 2.905691 1.109280
v -0.043927 2.749419 1.109280
v -0.115741 2.622993 1.166550
v -0.087043 3.032117 1.292287
v 0.002508 2.905691 1.312727
v 0.002508 2.749419 1.312727
v -0.087043 2.622993 1.292287
v -0.167454 3.032117 1.393120
v -0.127600 2.905691 1.475878
v -0.127600 2.749419 1.475878
v -0.167454 2.622993 1.393120
v -0.231939 3.080408 1.259215
v -0.296425 3.032117 1.393120
v -0.336279 2.905691 1.475878
v -0.336279 2.749419 1.475878
v -0.296425 2.622993 1.393120
v -0.376836 3.032117 1.292287
v -0.466387 2.905691 1.312727
v -0.466387 2.749419 1.312726
v -0.376836 2.622993 1.292287
v -0.348138 3.032117 1.166550
v -0.419952 2.905691 1.109280
v -0.419952 2.749419 1.109280
v -0.348138 2.622993 1.166550
vn 0.1472 -0.9407 -0.3056
vn 0.4339 -0.0000 -0.9010
vn 0.1472 0.9407 -0.3056
vn 0.3630 -0.5477 -0.7538
vn 0.3630 0.5477 -0.7538
vn 0.3307 -0.9407 -0.0755
vn 0.9749 -0.0000 -0.2225
vn 0.3307 0.9407 -0.0755
vn 0.8157 -0.5477 -0.1862
vn 0.8157 0.5477 -0.1862
vn 0.2652 -0.9407 0.2115
vn 0.7818 -0.0000 0.6235
vn 0.2652 0.9407 0.2115
vn 0.6541 -0.5477 0.5217
vn 0.6541 0.5477 0.5217
vn 0.0000 -0.9407 0.3392
vn 0.0000 -0.0000 1.0000
vn 0.0000 0.9407 0.3392
vn 0.0000 -0.5477 0.8367
vn 0.0000 0.5477 0.8367
vn -0.2652 -0.9407 0.2115
vn -0.7818 -0.0000 0.6235
vn -0.2652 0.9407 0.2115
vn -0.6541 -0.5477 0.5217
vn -0.6541 0.5477 0.5217
vn -0.3307 -0.9407 -0.0755
vn -0.9749 -0.0000 -0.2225
vn -0.3307 0.9407 -0.0755
vn -0.8157 -0.5477 -0.1862
vn -0.8157 0.5477 -0.1862
vn -0.1472 -0.9407 -0.3056
vn -0.4339 0.0000 -0.9010
vn -0.1472 0.9407 -0.3056
vn -0.3630 -0.5477 -0.7538
vn -0.3630 0.5477 -0.7538
usemtl None
s off
f 76//68 75//68 80//68
f 74//69 73//69 78//69 79//69
f 72//70 89//70 77//70
f 75//71 74//71 79//71 80//71
f 73//72 72//72 77//72 78//72
f 76//73 80//73 84//73
f 79//74 78//74 82//74 83//74
f 77//75 89//75 81//75
f 80//76 79//76 83//76 84//76
f 78//77 77//77 81//77 82//77
f 76//78 84//78 88//78
f 83//79 82//79 86//79 87//79
f 81//80 89//80 85//80
f 84//81 83//81 87//81 88//81
f 82//82 81//82 85//82 86//82
f 76//83 88//83 93//83
f 87//84 86//84 91//84 92//84
f 85//85 89//85 90//85
f 88//86 87//86 92//86 93//86
f 86//87 85//87 90//87 91//87
f 76//88 93//88 97//88
f 92//89 91//89 95//89 96//89
f 90//90 89//90 94//90
f 93//91 92//91 96//91 97//91
f 91//92 90//92 94//92 95//92
f 76//93 97//93 101//93
f 96//94 95//94 99//94 100//94
f 94//95 89//95 98//95
f 97//96 96//96 100//96 101//96
f 95//97 94//97 98//97 99//97
f 76//98 101//98 75//98
f 100//99 99//99 73//99 74//99
f 98//100 89//100 72//100
f 101//101 100//101 74//101 75//101
f 99//102 98//102 72//102 73//102
o Icosphere.001
v 0.059800 1.599998 0.054832
v 1.253749 2.152778 0.800348
v -0.396238 2.152778 1.261113
v -1.415998 2.152782 0.054832
v -0.396238 2.152778 -1.151449
v 1.253749 2.152778 -0.690684
v 0.515839 3.047218 1.261113
v -1.134148 3.047218 0.800348
v -1.134148 3.047218 -0.690684
v 0.515839 3.047218 -1.151449
v 1.535599 3.047214 0.054832
v 0.059800 3.599998 0.054832
v -0.208251 1.749344 0.763861
v 0.761581 1.749344 0.493032
v 0.493532 2.074260 1.202068
v 1.463365 2.074262 0.054832
v 0.761581 1.749344 -0.383368
v -0.807651 1.749346 0.054832
v -1.075709 2.074262 0.763863
v -0.208251 1.749344 -0.654197
v -1.075709 2.074262 -0.654199
v 0.493532 2.074260 -1.092404
v 1.629041 2.599998 0.493034
v 1.629041 2.599998 -0.383370
v 0.059800 2.599998 1.472903
v 1.029643 2.599998 1.202075
v -1.509440 2.599998 0.493034
v -0.910043 2.599998 1.202075
v -0.910043 2.599998 -1.092411
v -1.509440 2.599998 -0.383370
v 1.029643 2.599998 -1.092411
v 0.059800 2.599998 -1.363239
v 1.195309 3.125734 0.763863
v -0.373932 3.125736 1.202068
v -1.343764 3.125734 0.054832
v -0.373932 3.125736 -1.092404
v 1.195309 3.125734 -0.654199
v 0.327851 3.450652 0.763861
v 0.927252 3.450650 0.054832
v -0.641980 3.450652 0.493032
v -0.641980 3.450652 -0.383368
v 0.327851 3.450652 -0.654197
vn 0.0639 -0.9714 0.2288
vn 0.5249 -0.8184 0.2338
vn -0.1680 -0.9755 0.1420
vn -0.1680 -0.9755 -0.1420
vn 0.0639 -0.9714 -0.2288
vn 0.8216 -0.4949 0.2831
vn 0.0202 -0.4447 0.8955
vn -0.8045 -0.4929 0.3315
vn -0.4880 -0.4630 -0.7399
vn 0.4515 -0.4604 -0.7644
vn 0.7492 -0.1935 0.6334
vn -0.2646 -0.1789 0.9476
vn -0.9789 -0.2045 0.0000
vn -0.2646 -0.1789 -0.9476
vn 0.7492 -0.1935 -0.6334
vn 0.2972 0.7933 0.5313
vn -0.3442 0.7974 0.4956
vn -0.5249 0.8184 -0.2338
vn 0.0276 0.7813 -0.6235
vn 0.5446 0.8212 -0.1704
vn 0.1680 0.9755 -0.1420
vn 0.3363 0.8978 -0.2843
vn 0.2972 0.7933 -0.5313
vn -0.0639 0.9714 -0.2288
vn -0.1263 0.8829 -0.4523
vn -0.3442 0.7974 -0.4956
vn -0.2081 0.9781 0.0000
vn -0.4201 0.9075 0.0000
vn -0.5249 0.8184 0.2338
vn -0.0639 0.9714 0.2288
vn -0.1263 0.8829 0.4523
vn 0.0276 0.7813 0.6235
vn 0.1680 0.9755 0.1420
vn 0.3363 0.8978 0.2843
vn 0.5446 0.8212 0.1704
vn 0.8045 0.4929 -0.3315
vn 0.7320 0.2851 -0.6188
vn 0.4880 0.4630 -0.7399
vn -0.0202 0.4447 -0.8955
vn -0.2594 0.2645 -0.9288
vn -0.4515 0.4604 -0.7644
vn -0.8216 0.4949 -0.2831
vn -0.9538 0.3006 0.0000
vn -0.8216 0.4949 0.2831
vn -0.4515 0.4604 0.7644
vn -0.2594 0.2645 0.9288
vn -0.0202 0.4447 0.8955
vn 0.4880 0.4630 0.7399
vn 0.7320 0.2851 0.6188
vn 0.8045 0.4929 0.3315
vn 0.2646 0.1789 -0.9476
vn 0.2594 -0.2645 -0.9288
vn 0.0202 -0.4447 -0.8955
vn -0.7493 0.1935 -0.6334
vn -0.7320 -0.2851 -0.6188
vn -0.8045 -0.4929 -0.3315
vn -0.7492 0.1935 0.6334
vn -0.7320 -0.2851 0.6188
vn -0.4880 -0.4630 0.7399
vn 0.2646 0.1789 0.9476
vn 0.2594 -0.2645 0.9288
vn 0.4515 -0.4604 0.7644
vn 0.9789 0.2045 0.0000
vn 0.9538 -0.3006 0.0000
vn 0.8216 -0.4949 -0.2831
vn 0.3442 -0.7974 -0.4956
vn 0.1263 -0.8829 -0.4523
vn -0.0276 -0.7813 -0.6235
vn -0.2972 -0.7933 -0.5313
vn -0.3363 -0.8978 -0.2843
vn -0.5446 -0.8212 -0.1704
vn -0.5446 -0.8212 0.1704
vn -0.3363 -0.8978 0.2843
vn -0.2972 -0.7933 0.5313
vn 0.5249 -0.8184 -0.2338
vn 0.4201 -0.9075 0.0000
vn 0.2081 -0.9781 0.0000
vn -0.0276 -0.7813 0.6235
vn 0.1263 -0.8829 0.4523
vn 0.3442 -0.7974 0.4956
usemtl None
s off
f 102//103 115//103 114//103
f 103//104 115//104 117//104
f 102//105 114//105 119//105
f 102//106 119//106 121//106
f 102//107 121//107 118//107
f 103//108 117//108 124//108
f 104//109 116//109 126//109
f 105//110 120//110 128//110
f 106//111 122//111 130//111
f 107//112 123//112 132//112
f 103//113 124//113 127//113
f 104//114 126//114 129//114
f 105//115 128//115 131//115
f 106//116 130//116 133//116
f 107//117 132//117 125//117
f 108//118 134//118 139//118
f 109//119 135//119 141//119
f 110//120 136//120 142//120
f 111//121 137//121 143//121
f 112//122 138//122 140//122
f 140//123 143//123 113//123
f 140//124 138//124 143//124
f 138//125 111//125 143//125
f 143//126 142//126 113//126
f 143//127 137//127 142//127
f 137//128 110//128 142//128
f 142//129 141//129 113//129
f 142//130 136//130 141//130
f 136//131 109//131 141//131
f 141//132 139//132 113//132
f 141//133 135//133 139//133
f 135//134 108//134 139//134
f 139//135 140//135 113//135
f 139//136 134//136 140//136
f 134//137 112//137 140//137
f 125//138 138//138 112//138
f 125//139 132//139 138//139
f 132//140 111//140 138//140
f 133//141 137//141 111//141
f 133//142 130//142 137//142
f 130//143 110//143 137//143
f 131//144 136//144 110//144
f 131//145 128//145 136//145
f 128//146 109//146 136//146
f 129//147 135//147 109//147
f 129//148 126//148 135//148
f 126//149 108//149 135//149
f 127//150 134//150 108//150
f 127//151 124//151 134//151
f 124//152 112//152 134//152
f 132//153 133//153 111//153
f 132//154 123//154 133//154
f 123//155 106//155 133//155
f 130//156 131//156 110//156
f 130//157 122//157 131//157
f 122//158 105//158 131//158
f 128//159 129//159 109//159
f 128//160 120//160 129//160
f 120//161 104//161 129//161
f 126//162 127//162 108//162
f 126//163 116//163 127//163
f 116//164 103//164 127//164
f 124//165 125//165 112//165
f 124//166 117//166 125//166
f 117//167 107//167 125//167
f 118//168 123//168 107//168
f 118//169 121//169 123//169
f 121//170 106//170 123//170
f 121//171 122//171 106//171
f 121//172 119//172 122//172
f 119//173 105//173 122//173
f 119//174 120//174 105//174
f 119//175 114//175 120//175
f 114//176 104//176 120//176
f 117//177 118//177 107//177
f 117//178 115//178 118//178
f 115//179 102//179 118//179
f 114//180 116//180 104//180
f 114//181 115//181 116//181
f 115//182 103//182 116//182
o Icosphere
v 0.079274 -0.086512 0.000000
v 1.899985 0.571650 1.322809
v -0.616163 0.571650 2.140369
v -2.171246 0.571655 0.000000
v -0.616163 0.571650 -2.140369
v 1.899985 0.571650 -1.322809
v 0.774710 1.636605 2.140369
v -1.741438 1.636604 1.322809
v -1.741438 1.636604 -1.322809
v 0.774710 1.636605 -2.140369
v 2.329793 1.636600 0.000000
v 0.079274 2.294766 0.000000
v -0.329490 0.091305 1.258068
v 1.149454 0.091305 0.777522
v 0.740694 0.478163 2.035603
v 2.219640 0.478166 0.000000
v 1.149454 0.091305 -0.777522
v -1.243546 0.091308 0.000000
v -1.652321 0.478165 1.258072
v -0.329490 0.091305 -1.258068
v -1.652321 0.478165 -1.258072
v 0.740694 0.478163 -2.035603
v 2.472287 1.104127 0.777525
v 2.472287 1.104127 -0.777525
v 0.079274 1.104127 2.516160
v 1.558236 1.104127 2.035615
v -2.313740 1.104127 0.777525
v -1.399689 1.104127 2.035615
v -1.399689 1.104127 -2.035615
v -2.313740 1.104127 -0.777525
v 1.558236 1.104127 -2.035615
v 0.079274 1.104127 -2.516160
v 1.810868 1.730089 1.258072
v -0.582146 1.730091 2.035603
v -2.061092 1.730089 0.000000
v -0.582146 1.730091 -2.035603
v 1.810868 1.730089 -1.258072
v 0.488038 2.116949 1.258068
v 1.402094 2.116946 0.000000
v -0.990906 2.116949 0.777522
v -0.990906 2.116949 -0.777522
v 0.488038 2.116949 -1.258068
vn 0.0507 -0.9865 0.1559
vn 0.4413 -0.8813 0.1689
vn -0.1326 -0.9865 0.0963
vn -0.1326 -0.9865 -0.0963
vn 0.0507 -0.9865 -0.1559
vn 0.7708 -0.5947 0.2283
vn 0.0211 -0.5947 0.8037
vn -0.7578 -0.5947 0.2684
vn -0.4894 -0.5947 -0.6378
vn 0.4553 -0.5947 -0.6626
vn 0.7815 -0.2585 0.5678
vn -0.2985 -0.2585 0.9187
vn -0.9660 -0.2585 0.0000
vn -0.2985 -0.2585 -0.9187
vn 0.7815 -0.2585 -0.5678
vn 0.2577 0.8813 0.3961
vn -0.2970 0.8813 0.3675
vn -0.4413 0.8813 -0.1689
vn 0.0243 0.8813 -0.4719
vn 0.4563 0.8813 -0.1227
vn 0.1326 0.9865 -0.0963
vn 0.2750 0.9404 -0.1998
vn 0.2577 0.8813 -0.3961
vn -0.0507 0.9865 -0.1559
vn -0.1051 0.9404 -0.3233
vn -0.2970 0.8813 -0.3675
vn -0.1639 0.9865 0.0000
vn -0.3400 0.9404 0.0000
vn -0.4413 0.8813 0.1689
vn -0.0507 0.9865 0.1559
vn -0.1051 0.9404 0.3233
vn 0.0243 0.8813 0.4719
vn 0.1326 0.9865 0.0963
vn 0.2750 0.9404 0.1998
vn 0.4563 0.8813 0.1227
vn 0.7578 0.5947 -0.2684
vn 0.7502 0.3743 -0.5451
vn 0.4894 0.5947 -0.6378
vn -0.0211 0.5947 -0.8037
vn -0.2866 0.3743 -0.8819
vn -0.4553 0.5947 -0.6626
vn -0.7708 0.5947 -0.2283
vn -0.9273 0.3743 0.0000
vn -0.7708 0.5947 0.2283
vn -0.4553 0.5947 0.6626
vn -0.2866 0.3743 0.8819
vn -0.0211 0.5947 0.8037
vn 0.4894 0.5947 0.6378
vn 0.7502 0.3743 0.5451
vn 0.7578 0.5947 0.2684
vn 0.2985 0.2585 -0.9187
vn 0.2866 -0.3743 -0.8819
vn 0.0211 -0.5947 -0.8037
vn -0.7815 0.2585 -0.5678
vn -0.7502 -0.3743 -0.5451
vn -0.7578 -0.5947 -0.2684
vn -0.7815 0.2585 0.5678
vn -0.7502 -0.3743 0.5451
vn -0.4894 -0.5947 0.6378
vn 0.2985 0.2585 0.9187
vn 0.2866 -0.3743 0.8819
vn 0.4553 -0.5947 0.6626
vn 0.9660 0.2585 0.0000
vn 0.9273 -0.3743 0.0000
vn 0.7708 -0.5947 -0.2283
vn 0.2970 -0.8813 -0.3675
vn 0.1051 -0.9404 -0.3233
vn -0.0243 -0.8813 -0.4719
vn -0.2577 -0.8813 -0.3961
vn -0.2750 -0.9404 -0.1998
vn -0.4563 -0.8813 -0.1227
vn -0.4563 -0.8813 0.1227
vn -0.2750 -0.9404 0.1998
vn -0.2577 -0.8813 0.3961
vn 0.4413 -0.8813 -0.1689
vn 0.3400 -0.9404 0.0000
vn 0.1639 -0.9865 0.0000
vn -0.0243 -0.8813 0.4719
vn 0.1051 -0.9404 0.3233
vn 0.2970 -0.8813 0.3675
usemtl None
s off
f 144//183 157//183 156//183
f 145//184 157//184 159//184
f 144//185 156//185 161//185
f 144//186 161//186 163//186
f 144//187 163//187 160//187
f 145//188 159//188 166//188
f 146//189 158//189 168//189
f 147//190 162//190 170//190
f 148//191 164//191 172//191
f 149//192 165//192 174//192
f 145//193 166//193 169//193
f 146//194 168//194 171//194
f 147//195 170//195 173//195
f 148//196 172//196 175//196
f 149//197 174//197 167//197
f 150//198 176//198 181//198
f 151//199 177//199 183//199
f 152//200 178//200 184//200
f 153//201 179//201 185//201
f 154//202 180//202 182//202
f 182//203 185//203 155//203
f 182//204 180//204 185//204
f 180//205 153//205 185//205
f 185//206 184//206 155//206
f 185//207 179//207 184//207
f 179//208 152//208 184//208
f 184//209 183//209 155//209
f 184//210 178//210 183//210
f 178//211 151//211 183//211
f 183//212 181//212 155//212
f 183//213 177//213 181//213
f 177//214 150//214 181//214
f 181//215 182//215 155//215
f 181//216 176//216 182//216
f 176//217 154//217 182//217
f 167//218 180//218 154//218
f 167//219 174//219 180//219
f 174//220 153//220 180//220
f 175//221 179//221 153//221
f 175//222 172//222 179//222
f 172//223 152//223 179//223
f 173//224 178//224 152//224
f 173//225 170//225 178//225
f 170//226 151//226 178//226
f 171//227 177//227 151//227
f 171//228 168//228 177//228
f 168//229 150//229 177//229
f 169//230 176//230 150//230
f 169//231 166//231 176//231
f 166//232 154//232 176//232
f 174//233 175//233 153//233
f 174//234 165//234 175//234
f 165//235 148//235 175//235
f 172//236 173//236 152//236
f 172//237 164//237 173//237
f 164//238 147//238 173//238
f 170//239 171//239 151//239
f 170//240 162//240 171//240
f 162//241 146//241 171//241
f 168//242 169//242 150//242
f 168//243 158//243 169//243
f 158//244 145//244 169//244
f 166//245 167//245 154//245
f 166//246 159//246 167//246
f 159//247 149//247 167//247
f 160//248 165//248 149//248
f 160//249 163//249 165//249
f 163//250 148//250 165//250
f 163//251 164//251 148//251
f 163//252 161//252 164//252
f 161//253 147//253 164//253
f 161//254 162//254 147//254
f 161//255 156//255 162//255
f 156//256 146//256 162//256
f 159//257 160//257 149//257
f 159//258 157//258 160//258
f 157//259 144//259 160//259
f 156//260 158//260 146//260
f 156//261 157//261 158//261
f 157//262 145//262 158//262
