# Blender v2.79 (sub 0) OBJ File: 'arvore1.blend'
# www.blender.org
mtllib arvore1.mtl
o Icosphere_Icosphere.001
v 0.830598 1.444303 0.355960
v 2.006594 2.342674 1.210361
v 0.381416 2.342673 1.738423
v -0.623011 2.342680 0.355960
v 0.381416 2.342673 -1.026503
v 2.006594 2.342674 -0.498441
v 1.279780 3.796304 1.738423
v -0.345398 3.796303 1.210361
v -0.345398 3.796303 -0.498441
v 1.279780 3.796304 -1.026503
v 2.284206 3.796297 0.355960
v 0.830598 4.694674 0.355960
v 0.566577 1.687017 1.168545
v 1.521826 1.687017 0.858161
v 1.257808 2.215067 1.670754
v 2.213058 2.215070 0.355960
v 1.521826 1.687017 -0.146241
v -0.023811 1.687021 0.355960
v -0.287838 2.215069 1.168548
v 0.566577 1.687017 -0.456625
v -0.287838 2.215069 -0.456628
v 1.257808 2.215067 -0.958834
v 2.376243 3.069488 0.858163
v 2.376243 3.069488 -0.146243
v 0.830598 3.069488 1.981145
v 1.785858 3.069488 1.670762
v -0.715048 3.069488 0.858163
v -0.124663 3.069488 1.670762
v -0.124663 3.069488 -0.958843
v -0.715048 3.069488 -0.146243
v 1.785858 3.069488 -0.958843
v 0.830598 3.069488 -1.269226
v 1.949033 3.923907 1.168548
v 0.403387 3.923910 1.670754
v -0.551863 3.923907 0.355960
v 0.403387 3.923910 -0.958834
v 1.949033 3.923907 -0.456628
v 1.094618 4.451960 1.168545
v 1.685006 4.451955 0.355960
v 0.139369 4.451959 0.858161
v 0.139369 4.451959 -0.146241
v 1.094618 4.451960 -0.456625
vn 0.1024 -0.9435 0.3151
vn 0.7002 -0.6617 0.2680
vn -0.2680 -0.9435 0.1947
vn -0.2680 -0.9435 -0.1947
vn 0.1024 -0.9435 -0.3151
vn 0.9050 -0.3304 0.2680
vn 0.0247 -0.3304 0.9435
vn -0.8897 -0.3304 0.3151
vn -0.5746 -0.3304 -0.7488
vn 0.5346 -0.3304 -0.7779
vn 0.8026 -0.1256 0.5831
vn -0.3066 -0.1256 0.9435
vn -0.9921 -0.1256 0.0000
vn -0.3066 -0.1256 -0.9435
vn 0.8026 -0.1256 -0.5831
vn 0.4089 0.6617 0.6284
vn -0.4713 0.6617 0.5831
vn -0.7002 0.6617 -0.2680
vn 0.0385 0.6617 -0.7488
vn 0.7240 0.6617 -0.1947
vn 0.2680 0.9435 -0.1947
vn 0.4911 0.7947 -0.3568
vn 0.4089 0.6617 -0.6284
vn -0.1024 0.9435 -0.3151
vn -0.1876 0.7947 -0.5773
vn -0.4713 0.6617 -0.5831
vn -0.3313 0.9435 0.0000
vn -0.6071 0.7947 0.0000
vn -0.7002 0.6617 0.2680
vn -0.1024 0.9435 0.3151
vn -0.1876 0.7947 0.5773
vn 0.0385 0.6617 0.7488
vn 0.2680 0.9435 0.1947
vn 0.4911 0.7947 0.3568
vn 0.7240 0.6617 0.1947
vn 0.8897 0.3304 -0.3151
vn 0.7947 0.1876 -0.5773
vn 0.5746 0.3304 -0.7488
vn -0.0247 0.3304 -0.9435
vn -0.3035 0.1876 -0.9342
vn -0.5346 0.3304 -0.7779
vn -0.9050 0.3304 -0.2680
vn -0.9822 0.1876 0.0000
vn -0.9050 0.3304 0.2680
vn -0.5346 0.3304 0.7779
vn -0.3035 0.1876 0.9342
vn -0.0247 0.3304 0.9435
vn 0.5746 0.3304 0.7488
vn 0.7947 0.1876 0.5773
vn 0.8897 0.3304 0.3151
vn 0.3066 0.1256 -0.9435
vn 0.3035 -0.1876 -0.9342
vn 0.0247 -0.3304 -0.9435
vn -0.8026 0.1256 -0.5831
vn -0.7947 -0.1876 -0.5773
vn -0.8897 -0.3304 -0.3151
vn -0.8026 0.1256 0.5831
vn -0.7947 -0.1876 0.5773
vn -0.5746 -0.3304 0.7488
vn 0.3066 0.1256 0.9435
vn 0.3035 -0.1876 0.9342
vn 0.5346 -0.3304 0.7779
vn 0.9921 0.1256 0.0000
vn 0.9822 -0.1876 0.0000
vn 0.9050 -0.3304 -0.2680
vn 0.4713 -0.6617 -0.5831
vn 0.1876 -0.7947 -0.5773
vn -0.0385 -0.6617 -0.7488
vn -0.4089 -0.6617 -0.6284
vn -0.4911 -0.7947 -0.3568
vn -0.7240 -0.6617 -0.1947
vn -0.7240 -0.6617 0.1947
vn -0.4911 -0.7947 0.3568
vn -0.4089 -0.6617 0.6284
vn 0.7002 -0.6617 -0.2680
vn 0.6071 -0.7947 0.0000
vn 0.3313 -0.9435 0.0000
vn -0.0385 -0.6617 0.7488
vn 0.1876 -0.7947 0.5773
vn 0.4713 -0.6617 0.5831
usemtl None
s off
f 1//1 14//1 13//1
f 2//2 14//2 16//2
f 1//3 13//3 18//3
f 1//4 18//4 20//4
f 1//5 20//5 17//5
f 2//6 16//6 23//6
f 3//7 15//7 25//7
f 4//8 19//8 27//8
f 5//9 21//9 29//9
f 6//10 22//10 31//10
f 2//11 23//11 26//11
f 3//12 25//12 28//12
f 4//13 27//13 30//13
f 5//14 29//14 32//14
f 6//15 31//15 24//15
f 7//16 33//16 38//16
f 8//17 34//17 40//17
f 9//18 35//18 41//18
f 10//19 36//19 42//19
f 11//20 37//20 39//20
f 39//21 42//21 12//21
f 39//22 37//22 42//22
f 37//23 10//23 42//23
f 42//24 41//24 12//24
f 42//25 36//25 41//25
f 36//26 9//26 41//26
f 41//27 40//27 12//27
f 41//28 35//28 40//28
f 35//29 8//29 40//29
f 40//30 38//30 12//30
f 40//31 34//31 38//31
f 34//32 7//32 38//32
f 38//33 39//33 12//33
f 38//34 33//34 39//34
f 33//35 11//35 39//35
f 24//36 37//36 11//36
f 24//37 31//37 37//37
f 31//38 10//38 37//38
f 32//39 36//39 10//39
f 32//40 29//40 36//40
f 29//41 9//41 36//41
f 30//42 35//42 9//42
f 30//43 27//43 35//43
f 27//44 8//44 35//44
f 28//45 34//45 8//45
f 28//46 25//46 34//46
f 25//47 7//47 34//47
f 26//48 33//48 7//48
f 26//49 23//49 33//49
f 23//50 11//50 33//50
f 31//51 32//51 10//51
f 31//52 22//52 32//52
f 22//53 5//53 32//53
f 29//54 30//54 9//54
f 29//55 21//55 30//55
f 21//56 4//56 30//56
f 27//57 28//57 8//57
f 27//58 19//58 28//58
f 19//59 3//59 28//59
f 25//60 26//60 7//60
f 25//61 15//61 26//61
f 15//62 2//62 26//62
f 23//63 24//63 11//63
f 23//64 16//64 24//64
f 16//65 6//65 24//65
f 17//66 22//66 6//66
f 17//67 20//67 22//67
f 20//68 5//68 22//68
f 20//69 21//69 5//69
f 20//70 18//70 21//70
f 18//71 4//71 21//71
f 18//72 19//72 4//72
f 18//73 13//73 19//73
f 13//74 3//74 19//74
f 16//75 17//75 6//75
f 16//76 14//76 17//76
f 14//77 1//77 17//77
f 13//78 15//78 3//78
f 13//79 14//79 15//79
f 14//80 2//80 15//80
o Cylinder
v 0.814219 -2.186041 -0.028656
v 0.814219 3.069501 0.225149
v 1.068428 -2.186041 0.063868
v 0.922169 3.069501 0.258294
v 1.203689 -2.186041 0.298148
v 0.979609 3.069501 0.342221
v 1.156713 -2.186041 0.564561
v 0.959660 3.069501 0.437658
v 0.949481 -2.186041 0.738450
v 0.871658 3.069501 0.499951
v 0.678957 -2.186041 0.738450
v 0.756780 3.069501 0.499951
v 0.471725 -2.186041 0.564561
v 0.668778 3.069501 0.437658
v 0.424749 -2.186041 0.298148
v 0.648829 3.069501 0.342221
v 0.560010 -2.186041 0.063868
v 0.706268 3.069501 0.258294
vn 0.3275 0.0448 -0.9438
vn 0.8546 0.0419 -0.5176
vn 0.9825 0.0408 0.1817
vn 0.6241 0.0434 0.7801
vn -0.0000 0.0453 0.9990
vn -0.6241 0.0434 0.7801
vn -0.9825 0.0408 0.1817
vn 0.0000 1.0000 0.0000
vn -0.8546 0.0419 -0.5175
vn -0.3275 0.0448 -0.9438
vn 0.0000 -1.0000 -0.0000
usemtl None
s off
f 43//81 44//81 46//81 45//81
f 45//82 46//82 48//82 47//82
f 47//83 48//83 50//83 49//83
f 49//84 50//84 52//84 51//84
f 51//85 52//85 54//85 53//85
f 53//86 54//86 56//86 55//86
f 55//87 56//87 58//87 57//87
f 46//88 44//88 60//88 58//88 56//88 54//88 52//88 50//88 48//88
f 57//89 58//89 60//89 59//89
f 59//90 60//90 44//90 43//90
f 43//91 45//91 47//91 49//91 51//91 53//91 55//91 57//91 59//91
