# Blender v2.79 (sub 0) OBJ File: 'espada1.blend'
# www.blender.org
mtllib espada1.mtl
o Torus
v 1.066712 2.147557 -0.315372
v 1.247795 2.283747 -0.339727
v 1.172173 2.495363 -0.377570
v 0.944353 2.489958 -0.376603
v 0.879175 2.275002 -0.338163
v 1.064693 2.160623 -0.718195
v 1.246055 2.295008 -0.686881
v 1.170884 2.503701 -0.634649
v 0.943065 2.498296 -0.633683
v 0.877435 2.286262 -0.685317
v 1.058985 2.336357 -1.080859
v 1.241136 2.446456 -0.999426
v 1.167241 2.615855 -0.866100
v 0.939422 2.610450 -0.865134
v 0.872516 2.437711 -0.997862
v 1.049132 2.995414 0.282160
v 1.058985 2.589952 0.337240
v 1.241136 2.665005 0.222696
v 1.167241 2.777698 0.038925
v 0.939422 2.772293 0.039892
v 0.872516 2.656259 0.224260
v 1.064693 2.299419 0.057956
v 1.246055 2.414623 -0.017991
v 1.170884 2.592281 -0.139313
v 0.943065 2.586876 -0.138346
v 0.877435 2.405877 -0.016427
v 1.162585 2.786383 -1.009933
v 1.054698 2.493359 -1.213283
v 1.235848 2.640112 -1.162766
v 0.935773 2.744088 -0.977851
v 0.868732 2.576303 -1.114758
v 1.200512 2.658974 -1.039831
vt 0.672735 0.205454
vt 0.672735 0.410597
vt 0.576800 0.382247
vt 0.576800 0.205454
vt 0.387379 0.594244
vt 0.324722 0.424709
vt 0.436324 0.408461
vt 0.482724 0.534007
vt 0.563927 0.724258
vt 0.433006 0.724258
vt 0.433006 0.842841
vt 0.563927 0.842841
vt 0.136042 0.508444
vt 0.113015 0.376594
vt 0.000311 0.372474
vt 0.031406 0.550522
vt 0.769293 0.205454
vt 0.769293 0.382247
vt 0.673358 0.410597
vt 0.673358 0.205454
vt 0.672735 0.580269
vt 0.576800 0.528471
vt 0.336437 0.244347
vt 0.445000 0.274896
vt 0.324722 0.724258
vt 0.324722 0.842841
vt 0.145607 0.246776
vt 0.044323 0.197172
vt 0.769293 0.528471
vt 0.673358 0.580269
vt 0.769916 0.000311
vt 0.769916 0.092890
vt 0.865851 0.161143
vt 0.865851 0.046950
vt 0.397764 0.127617
vt 0.431343 0.182933
vt 0.499002 0.172107
vt 0.880853 0.638153
vt 0.880853 0.537597
vt 0.999435 0.559351
vt 0.999435 0.638153
vt 0.201745 0.175164
vt 0.102542 0.122905
vt 0.962409 0.333333
vt 0.962409 0.251610
vt 0.866474 0.287393
vt 0.866474 0.379972
vt 0.969919 0.916125
vt 0.863517 0.731837
vt 0.969919 0.724258
vt 0.781497 0.380595
vt 0.880230 0.527389
vt 0.769916 0.550837
vt 0.434432 0.999689
vt 0.434432 0.843464
vt 0.324722 0.888469
vt 0.298050 0.797180
vt 0.193427 0.931979
vt 0.298050 0.974089
vt 0.803755 0.820196
vt 0.096247 0.797180
vt 0.096247 0.966852
vt 0.000311 0.995202
vt 0.000311 0.848978
vt 0.880230 0.708132
vt 0.769916 0.684684
vt 0.803133 0.724258
vt 0.694849 0.724258
vt 0.694849 0.842841
vt 0.803133 0.842841
vt 0.324099 0.690643
vt 0.210707 0.619530
vt 0.132232 0.700529
vt 0.285354 0.796558
vt 0.192805 0.848978
vt 0.192805 0.995202
vt 0.096869 0.966852
vt 0.096869 0.797180
vt 0.672735 0.000311
vt 0.576800 0.028661
vt 0.513576 0.723636
vt 0.576177 0.629827
vt 0.769293 0.028661
vt 0.673358 0.000311
vn 0.5983 -0.8007 -0.0290
vn 0.9413 0.3375 0.0062
vn -0.0236 0.9992 0.0325
vn -0.9562 0.2925 0.0143
vn -0.5599 -0.8282 -0.0241
vn 0.5950 -0.7196 -0.3580
vn 0.9426 0.3061 0.1335
vn -0.0195 0.8996 0.4362
vn -0.9549 0.2611 0.1415
vn -0.5632 -0.7470 -0.3531
vn 0.5889 -0.5116 -0.6256
vn 0.9449 0.2257 0.2370
vn -0.0120 0.6445 0.7645
vn -0.9525 0.1807 0.2450
vn -0.5693 -0.5391 -0.6207
vn 0.4892 0.1291 0.8626
vn 0.8613 0.5069 -0.0355
vn -0.0204 0.7400 -0.6723
vn -0.8846 0.4655 -0.0281
vn -0.4875 0.1059 0.8667
vn 0.5950 -0.5509 0.5852
vn 0.9426 0.2409 -0.2313
vn -0.0195 0.6927 -0.7210
vn -0.9549 0.1959 -0.2233
vn -0.5632 -0.5784 0.5901
vn 0.5983 -0.7411 0.3047
vn 0.9413 0.3144 -0.1228
vn -0.0236 0.9260 -0.3768
vn -0.9562 0.2694 -0.1148
vn -0.5599 -0.7685 0.3096
vn -0.1301 0.6562 -0.7433
usemtl Material.002
s off
f 1/1/1 6/2/1 7/3/1 2/4/1
f 2/5/2 7/6/2 8/7/2 3/8/2
f 3/9/3 8/10/3 9/11/3 4/12/3
f 4/13/4 9/14/4 10/15/4 5/16/4
f 5/17/5 10/18/5 6/19/5 1/20/5
f 6/2/6 11/21/6 12/22/6 7/3/6
f 7/6/7 12/23/7 13/24/7 8/7/7
f 8/10/8 13/25/8 14/26/8 9/11/8
f 9/14/9 14/27/9 15/28/9 10/15/9
f 10/18/10 15/29/10 11/30/10 6/19/10
f 11/31/11 28/32/11 29/33/11 12/34/11
f 12/23/12 29/35/12 32/36/12 27/37/12 13/24/12
f 13/38/13 27/39/13 30/40/13 14/41/13
f 14/27/14 30/42/14 31/43/14 15/28/14
f 15/44/15 31/45/15 28/46/15 11/47/15
f 16/48/16 17/49/16 18/50/16
f 16/51/17 18/52/17 19/53/17
f 16/54/18 19/55/18 20/56/18
f 16/57/19 20/58/19 21/59/19
f 16/48/20 21/60/20 17/49/20
f 17/61/21 22/62/21 23/63/21 18/64/21
f 18/52/22 23/65/22 24/66/22 19/53/22
f 19/67/23 24/68/23 25/69/23 20/70/23
f 20/71/24 25/72/24 26/73/24 21/74/24
f 21/75/25 26/76/25 22/77/25 17/78/25
f 22/79/26 1/1/26 2/4/26 23/80/26
f 23/81/27 2/5/27 3/8/27 24/82/27
f 24/68/28 3/9/28 4/12/28 25/69/28
f 25/72/29 4/13/29 5/16/29 26/73/29
f 26/83/30 5/17/30 1/20/30 22/84/30
f 29/35/31 28/46/31 31/43/31 30/40/31 27/37/31 32/36/31
o Cylinder_Cylinder.002
v 1.061934 2.277739 -0.335398
v 1.061934 0.863152 -0.335398
v 0.911682 2.277739 -0.407755
v 0.911682 0.863152 -0.407755
v 0.874573 2.277739 -0.570341
v 0.874573 0.863152 -0.570341
v 0.978550 2.277739 -0.700725
v 1.145318 2.277739 -0.700725
v 1.249295 2.277739 -0.570341
v 1.212186 2.277739 -0.407755
v 1.212186 0.863152 -0.407755
v 0.978550 0.981793 -0.700725
v 1.145318 1.164641 -0.700725
v 1.249295 1.110680 -0.570341
vt 0.850083 0.834263
vt 0.685098 0.834263
vt 0.685098 0.412217
vt 0.850083 0.412217
vt 0.000251 0.834263
vt 0.178779 0.834263
vt 0.178779 0.412217
vt 0.000251 0.412217
vt 0.321947 0.834263
vt 0.321947 0.447614
vt 0.322448 0.834263
vt 0.505567 0.834263
vt 0.505567 0.502167
vt 0.322448 0.447614
vt 0.993752 0.834263
vt 0.850584 0.834263
vt 0.850584 0.486068
vt 0.993752 0.502167
vt 0.258231 0.411715
vt 0.401399 0.297543
vt 0.000251 0.205983
vt 0.079703 0.370968
vt 0.684597 0.834263
vt 0.506069 0.834263
vt 0.506069 0.412217
vt 0.684597 0.486068
vt 0.422297 0.834765
vt 0.422297 0.999749
vt 0.000251 0.999749
vt 0.000251 0.834765
vt 0.481353 0.370968
vt 0.401901 0.205983
vt 0.481353 0.040998
vt 0.659881 0.000251
vt 0.803049 0.114424
vt 0.803049 0.297543
vt 0.659881 0.411715
vn -0.4339 0.0000 0.9010
vn -0.9749 0.0000 0.2225
vn -0.7818 0.0000 -0.6235
vn -0.0000 0.0000 -1.0000
vn 0.7818 0.0000 -0.6235
vn 0.0000 -1.0000 0.0000
vn 0.9749 0.0000 0.2225
vn 0.4339 0.0000 0.9010
vn 0.0000 1.0000 -0.0000
vn 0.4617 -0.6302 -0.6243
usemtl Material.004
s off
f 33/85/32 35/86/32 36/87/32 34/88/32
f 35/89/33 37/90/33 38/91/33 36/92/33
f 37/90/34 39/93/34 44/94/34 38/91/34
f 39/95/35 40/96/35 45/97/35 44/98/35
f 40/99/36 41/100/36 46/101/36 45/102/36
f 36/103/37 38/104/37 43/105/37 34/106/37
f 41/107/38 42/108/38 43/109/38 46/110/38
f 42/111/39 33/112/39 34/113/39 43/114/39
f 33/115/40 42/116/40 41/117/40 40/118/40 39/119/40 37/120/40 35/121/40
f 46/110/41 43/109/41 38/104/41 44/94/41 45/97/41
o Plane
v 1.148960 3.867442 -0.512555
v 1.148564 2.295533 -0.510107
v 1.149105 6.013531 -0.510107
v 1.149105 3.534866 -0.512555
v 1.061290 2.295533 -0.271982
v 0.975340 2.295533 -0.512555
v 1.061290 2.295533 -0.753127
v 1.148563 4.774199 -0.512555
v 1.061290 6.013531 -0.271982
v 0.975340 6.013531 -0.512555
v 1.061290 6.013531 -0.753127
v 1.061290 4.774199 -0.271982
v 0.975340 4.774199 -0.512555
v 1.061290 4.774199 -0.753127
v 1.061290 3.534866 -0.271982
v 0.975340 3.534866 -0.512555
v 1.061290 3.534866 -0.753127
v 1.145912 6.082346 -0.510216
v 1.121085 6.013531 -0.587650
v 1.068095 6.291799 -0.325888
v 1.061290 5.859833 -0.753127
v 0.989406 6.013531 -0.473183
v 0.975340 5.927073 -0.512555
v 1.061290 3.670459 -0.271982
v 1.061290 4.068153 -0.271982
v 0.975340 3.868709 -0.512555
v 0.975340 2.796033 -0.512555
v 1.148762 2.750472 -0.511006
v 1.061290 2.599055 -0.753127
v 1.061290 3.144694 -0.753127
v 1.061290 5.618992 -0.271982
v 1.061290 5.764873 -0.271982
v 1.148864 5.461315 -0.511198
v 0.975340 5.475911 -0.512555
vn -0.9398 0.0007 0.3419
vn -0.9394 -0.0003 -0.3428
vn -0.9405 0.0000 0.3398
vn -0.9397 -0.0002 0.3420
vn 0.3060 -0.8039 0.5099
vn -0.9385 0.0008 -0.3453
vn 0.9417 0.0000 -0.3364
vn 0.9417 0.0000 0.3364
vn -0.9398 -0.0002 -0.3416
vn -0.9392 -0.0001 -0.3435
vn -0.9396 -0.0431 0.3395
vn 0.9381 -0.0879 -0.3351
vn -0.9403 -0.0001 0.3405
vn -0.9373 -0.0440 -0.3457
vn 0.0056 0.7688 -0.6394
vn 0.1345 0.5401 0.8308
vn 0.0589 0.6283 -0.7757
vn -0.0752 -0.8450 0.5294
vn -0.9409 0.0006 0.3387
vn -0.2132 -0.7919 0.5722
vn -0.9395 0.0005 -0.3425
vn -0.0056 -0.7727 -0.6347
usemtl Material.001
s off
f 63//42 76//42 74//42 50//42
f 70//43 47//43 50//43 61//43
f 57//44 67//44 65//44
f 60//45 63//45 50//45 47//45 54//45
f 56//46 57//46 65//46 64//46 66//46 68//46
f 49//47 79//47 78//47 55//47
f 55//48 78//48 80//48 69//48 68//48
f 56//49 69//49 67//49 57//49
f 54//50 47//50 71//50 58//50
f 58//48 71//48 72//48 59//48
f 59//49 72//49 62//49 63//49 60//49
f 50//51 74//51 48//51 51//51 61//51
f 61//48 51//48 52//48 73//48 62//48
f 62//49 73//49 76//49 63//49
f 64//52 65//52 49//52
f 68//48 69//48 56//48
f 68//53 66//53 55//53
f 65//54 67//54 60//54 54//54 79//54 49//54
f 67//49 69//49 80//49 59//49 60//49
f 66//55 64//55 49//55 55//55
f 70//48 61//48 62//48 72//48
f 71//56 47//56 72//56
f 74//57 76//57 73//57
f 79//58 80//58 78//58
f 80//59 79//59 77//59
f 75//49 73//49 52//49 53//49
f 74//60 75//60 53//60 48//60
f 73//61 75//61 74//61
f 77//62 79//62 54//62 58//62
f 70//63 72//63 47//63
f 77//48 58//48 59//48 80//48
