# Blender v2.79 (sub 0) OBJ File: 'espada2.blend'
# www.blender.org
mtllib espada2.mtl
o Torus
v 1.066712 2.147557 -0.315372
v 1.247795 2.283747 -0.339727
v 1.172173 2.495363 -0.377570
v 0.944353 2.489958 -0.376603
v 0.879175 2.275002 -0.338163
v 1.064693 2.160623 -0.718195
v 1.246055 2.295008 -0.686881
v 1.170884 2.503701 -0.634649
v 0.943065 2.498296 -0.633683
v 0.877435 2.286262 -0.685317
v 1.058985 2.336357 -1.080859
v 1.241136 2.446456 -0.999426
v 1.167241 2.615855 -0.866100
v 0.939422 2.610450 -0.865134
v 0.872516 2.437711 -0.997862
v 1.050575 2.644374 -1.340657
v 1.233888 2.711906 -1.223321
v 1.161874 2.812430 -1.031903
v 0.934054 2.807025 -1.030936
v 0.865268 2.703161 -1.221757
v 1.041405 3.045413 -1.259323
v 1.049132 2.995414 0.282160
v 1.058985 2.589952 0.337240
v 1.241136 2.665005 0.222696
v 1.167241 2.777698 0.038925
v 0.939422 2.772293 0.039892
v 0.872516 2.656259 0.224260
v 1.064693 2.299419 0.057956
v 1.246055 2.414623 -0.017991
v 1.170884 2.592281 -0.139313
v 0.943065 2.586876 -0.138346
v 0.877435 2.405877 -0.016427
vt 0.672735 0.205454
vt 0.672735 0.410597
vt 0.576800 0.382247
vt 0.576800 0.205454
vt 0.387379 0.594244
vt 0.324722 0.424709
vt 0.436324 0.408461
vt 0.482724 0.534007
vt 0.563927 0.724258
vt 0.433006 0.724258
vt 0.433006 0.842841
vt 0.563927 0.842841
vt 0.136042 0.508444
vt 0.113015 0.376594
vt 0.000311 0.372474
vt 0.031406 0.550522
vt 0.769293 0.205454
vt 0.769293 0.382247
vt 0.673358 0.410597
vt 0.673358 0.205454
vt 0.672735 0.580269
vt 0.576800 0.528471
vt 0.336437 0.244347
vt 0.445000 0.274896
vt 0.324722 0.724258
vt 0.324722 0.842841
vt 0.145607 0.246776
vt 0.044323 0.197172
vt 0.769293 0.528471
vt 0.673358 0.580269
vt 0.769916 0.000311
vt 0.769916 0.181939
vt 0.865851 0.203478
vt 0.865851 0.046950
vt 0.420499 0.084343
vt 0.507251 0.156407
vt 0.880853 0.638153
vt 0.880853 0.522238
vt 0.999435 0.522238
vt 0.999435 0.638153
vt 0.228183 0.141438
vt 0.155831 0.054926
vt 0.962409 0.333333
vt 0.962409 0.176806
vt 0.866474 0.198344
vt 0.866474 0.379972
vt 0.769916 0.379972
vt 0.576177 0.000311
vt 0.940144 0.380595
vt 0.324099 0.000311
vt 0.866474 0.000311
vt 0.969919 0.916125
vt 0.863517 0.731837
vt 0.969919 0.724258
vt 0.781497 0.380595
vt 0.880230 0.527389
vt 0.769916 0.550837
vt 0.434432 0.999689
vt 0.434432 0.843464
vt 0.324722 0.888469
vt 0.298050 0.797180
vt 0.193427 0.931979
vt 0.298050 0.974089
vt 0.803755 0.820196
vt 0.096247 0.797180
vt 0.096247 0.966852
vt 0.000311 0.995202
vt 0.000311 0.848978
vt 0.880230 0.708132
vt 0.769916 0.684684
vt 0.803133 0.724258
vt 0.694849 0.724258
vt 0.694849 0.842841
vt 0.803133 0.842841
vt 0.324099 0.690643
vt 0.210707 0.619530
vt 0.132232 0.700529
vt 0.285354 0.796558
vt 0.192805 0.848978
vt 0.192805 0.995202
vt 0.096869 0.966852
vt 0.096869 0.797180
vt 0.672735 0.000311
vt 0.576800 0.028661
vt 0.513576 0.723636
vt 0.576177 0.629827
vt 0.769293 0.028661
vt 0.673358 0.000311
vn 0.5983 -0.8007 -0.0290
vn 0.9413 0.3375 0.0062
vn -0.0236 0.9992 0.0325
vn -0.9562 0.2925 0.0143
vn -0.5599 -0.8282 -0.0241
vn 0.5950 -0.7196 -0.3580
vn 0.9426 0.3061 0.1335
vn -0.0195 0.8996 0.4362
vn -0.9549 0.2611 0.1415
vn -0.5632 -0.7470 -0.3531
vn 0.5889 -0.5116 -0.6256
vn 0.9449 0.2257 0.2370
vn -0.0120 0.6445 0.7645
vn -0.9525 0.1807 0.2450
vn -0.5693 -0.5391 -0.6207
vn 0.4806 0.1848 -0.8572
vn 0.8618 0.5038 0.0596
vn -0.0134 0.6949 0.7190
vn -0.8841 0.4624 0.0670
vn -0.4961 0.1617 -0.8531
vn 0.4892 0.1291 0.8626
vn 0.8613 0.5069 -0.0355
vn -0.0204 0.7400 -0.6723
vn -0.8846 0.4655 -0.0281
vn -0.4875 0.1059 0.8667
vn 0.5950 -0.5509 0.5852
vn 0.9426 0.2409 -0.2313
vn -0.0195 0.6927 -0.7210
vn -0.9549 0.1959 -0.2233
vn -0.5632 -0.5784 0.5901
vn 0.5983 -0.7411 0.3047
vn 0.9413 0.3144 -0.1228
vn -0.0236 0.9260 -0.3768
vn -0.9562 0.2694 -0.1148
vn -0.5599 -0.7685 0.3096
usemtl Material.002
s off
f 1/1/1 6/2/1 7/3/1 2/4/1
f 2/5/2 7/6/2 8/7/2 3/8/2
f 3/9/3 8/10/3 9/11/3 4/12/3
f 4/13/4 9/14/4 10/15/4 5/16/4
f 5/17/5 10/18/5 6/19/5 1/20/5
f 6/2/6 11/21/6 12/22/6 7/3/6
f 7/6/7 12/23/7 13/24/7 8/7/7
f 8/10/8 13/25/8 14/26/8 9/11/8
f 9/14/9 14/27/9 15/28/9 10/15/9
f 10/18/10 15/29/10 11/30/10 6/19/10
f 11/31/11 16/32/11 17/33/11 12/34/11
f 12/23/12 17/35/12 18/36/12 13/24/12
f 13/37/13 18/38/13 19/39/13 14/40/13
f 14/27/14 19/41/14 20/42/14 15/28/14
f 15/43/15 20/44/15 16/45/15 11/46/15
f 16/32/16 21/47/16 17/33/16
f 17/35/17 21/48/17 18/36/17
f 18/38/18 21/49/18 19/39/18
f 19/41/19 21/50/19 20/42/19
f 20/44/20 21/51/20 16/45/20
f 22/52/21 23/53/21 24/54/21
f 22/55/22 24/56/22 25/57/22
f 22/58/23 25/59/23 26/60/23
f 22/61/24 26/62/24 27/63/24
f 22/52/25 27/64/25 23/53/25
f 23/65/26 28/66/26 29/67/26 24/68/26
f 24/56/27 29/69/27 30/70/27 25/57/27
f 25/71/28 30/72/28 31/73/28 26/74/28
f 26/75/29 31/76/29 32/77/29 27/78/29
f 27/79/30 32/80/30 28/81/30 23/82/30
f 28/83/31 1/1/31 2/4/31 29/84/31
f 29/85/32 2/5/32 3/8/32 30/86/32
f 30/72/33 3/9/33 4/12/33 31/73/33
f 31/76/34 4/13/34 5/16/34 32/77/34
f 32/87/35 5/17/35 1/20/35 28/88/35
o Cylinder_Cylinder.002
v 1.061934 2.277739 -0.335398
v 1.061934 0.863152 -0.335398
v 0.911682 2.277739 -0.407755
v 0.911682 0.863152 -0.407755
v 0.874573 2.277739 -0.570341
v 0.874573 0.863152 -0.570341
v 0.978550 2.277739 -0.700725
v 0.978550 0.863152 -0.700725
v 1.145318 2.277739 -0.700725
v 1.145318 0.863152 -0.700725
v 1.249295 2.277739 -0.570341
v 1.249295 0.863152 -0.570341
v 1.212186 2.277739 -0.407755
v 1.212186 0.863152 -0.407755
vt 0.850083 0.834263
vt 0.685098 0.834263
vt 0.685098 0.412217
vt 0.850083 0.412217
vt 0.000251 0.834263
vt 0.178779 0.834263
vt 0.178779 0.412217
vt 0.000251 0.412217
vt 0.321947 0.834263
vt 0.321947 0.412217
vt 0.322448 0.834263
vt 0.505567 0.834263
vt 0.505567 0.412217
vt 0.322448 0.412217
vt 0.993752 0.834263
vt 0.850584 0.834263
vt 0.850584 0.412217
vt 0.993752 0.412217
vt 0.258231 0.411715
vt 0.401399 0.297543
vt 0.401399 0.114424
vt 0.258231 0.000251
vt 0.079703 0.040998
vt 0.000251 0.205983
vt 0.079703 0.370968
vt 0.684597 0.834263
vt 0.506069 0.834263
vt 0.506069 0.412217
vt 0.684597 0.412217
vt 0.422297 0.834765
vt 0.422297 0.999749
vt 0.000251 0.999749
vt 0.000251 0.834765
vt 0.481353 0.370968
vt 0.401901 0.205983
vt 0.481353 0.040998
vt 0.659881 0.000251
vt 0.803049 0.114424
vt 0.803049 0.297543
vt 0.659881 0.411715
vn -0.4339 0.0000 0.9010
vn -0.9749 0.0000 0.2225
vn -0.7818 0.0000 -0.6235
vn 0.0000 0.0000 -1.0000
vn 0.7818 0.0000 -0.6235
vn 0.0000 -1.0000 0.0000
vn 0.9749 0.0000 0.2225
vn 0.4339 0.0000 0.9010
vn 0.0000 1.0000 -0.0000
usemtl Material.004
s off
f 33/89/36 35/90/36 36/91/36 34/92/36
f 35/93/37 37/94/37 38/95/37 36/96/37
f 37/94/38 39/97/38 40/98/38 38/95/38
f 39/99/39 41/100/39 42/101/39 40/102/39
f 41/103/40 43/104/40 44/105/40 42/106/40
f 36/107/41 38/108/41 40/109/41 42/110/41 44/111/41 46/112/41 34/113/41
f 43/114/42 45/115/42 46/116/42 44/117/42
f 45/118/43 33/119/43 34/120/43 46/121/43
f 33/122/44 45/123/44 43/124/44 41/125/44 39/126/44 37/127/44 35/128/44
o Plane
v 1.148564 2.295533 -0.510107
v 1.149105 6.013531 -0.510107
v 1.149105 3.534866 -0.512555
v 1.061290 2.295533 -0.271982
v 0.975340 2.295533 -0.512555
v 1.061290 2.295533 -0.753127
v 1.148563 4.774199 -0.512555
v 1.061290 6.013531 -0.271982
v 0.975340 6.013531 -0.512555
v 1.061290 6.013531 -0.753127
v 1.061290 4.774199 -0.271982
v 0.975340 4.774199 -0.512555
v 1.061290 4.774199 -0.753127
v 1.061290 3.534866 -0.271982
v 0.975340 3.534866 -0.512555
v 1.061290 3.534866 -0.753127
v 1.148891 5.524804 -0.511072
v 0.975340 5.571372 -0.512555
v 1.061290 5.666496 -0.271982
v 1.061290 5.809877 -0.271982
v 1.061290 3.703877 -0.271982
v 1.061290 4.120759 -0.271982
v 0.975340 3.910955 -0.512555
v 1.148957 3.874130 -0.512555
v 1.004711 6.326629 -0.512431
v 1.133436 6.351219 -0.510641
v 1.074883 6.569345 -0.379654
v 1.071282 6.422108 -0.673655
vn -0.9403 0.0005 0.3404
vn -0.9403 -0.0001 0.3404
vn -0.9397 -0.0002 0.3420
vn 0.1738 -0.8771 -0.4477
vn 0.0829 -0.4966 0.8640
vn -0.9384 0.0008 -0.3454
vn 0.9417 0.0000 -0.3364
vn 0.9417 0.0000 0.3364
vn -0.9398 -0.0002 -0.3416
vn -0.9392 -0.0001 -0.3435
vn 0.1844 0.6642 -0.7244
vn -0.2375 -0.8713 0.4294
vn -0.9395 0.0005 -0.3427
vn 0.1521 0.7173 -0.6799
vn -0.9394 -0.0003 -0.3427
vn -0.1646 -0.7759 -0.6091
vn -0.9396 -0.0431 0.3395
vn 0.9381 -0.0879 -0.3351
vn 0.9380 -0.0881 0.3351
vn -0.9373 -0.0440 -0.3457
usemtl Material.001
s off
f 62//45 52//45 47//45 49//45
f 56//46 59//46 53//46 63//46 48//46
f 59//47 62//47 49//47 70//47 53//47
f 71//48 74//48 72//48
f 72//49 73//49 71//49
f 48//50 63//50 66//50 54//50
f 54//51 66//51 64//51 55//51
f 55//52 64//52 58//52 59//52 56//52
f 53//53 70//53 68//53 57//53
f 57//51 68//51 69//51 58//51
f 58//52 69//52 61//52 62//52 59//52
f 49//54 47//54 50//54 60//54
f 60//51 50//51 51//51 61//51
f 61//52 51//52 52//52 62//52
f 63//55 64//55 66//55
f 65//51 57//51 58//51 64//51
f 64//56 63//56 65//56
f 65//57 63//57 53//57 57//57
f 70//58 69//58 68//58
f 67//59 70//59 49//59 60//59
f 69//60 70//60 67//60
f 67//51 60//51 61//51 69//51
f 72//61 74//61 56//61 48//61
f 71//62 73//62 54//62 55//62
f 74//63 71//63 55//63 56//63
f 73//64 72//64 48//64 54//64
