# Blender v2.79 (sub 0) OBJ File: 'espada3.blend'
# www.blender.org
mtllib espada3.mtl
o Icosphere_Icosphere.001
v 1.043003 1.031526 0.311476
v 0.801098 0.846725 0.135724
v 1.135401 0.846725 0.027101
v 1.342016 0.846725 0.311476
v 1.135401 0.846725 0.595852
v 0.801098 0.846725 0.487229
v 0.950606 0.547711 0.027101
v 1.284908 0.547711 0.135724
v 1.284908 0.547711 0.487229
v 0.950606 0.547711 0.595852
v 0.743990 0.547711 0.311476
v 1.043003 0.362911 0.311476
vt 0.212090 0.201721
vt 0.383477 0.326239
vt 0.146628 0.403197
vt 0.000246 0.201724
vt 0.383477 0.077198
vt 0.146624 0.000246
vt 0.000246 0.729684
vt 0.212094 0.605165
vt 0.000246 0.480647
vt 0.595813 0.640542
vt 0.383968 0.509611
vt 0.383968 0.746464
vt 0.595817 0.201722
vt 0.383968 0.077204
vt 0.595817 0.000246
vt 0.595817 0.403199
vt 0.383968 0.326240
vt 0.595820 0.983806
vt 0.383972 0.877882
vt 0.595820 0.746957
vt 0.212094 0.806642
vt 0.595813 0.403689
vt 0.808152 0.947311
vt 0.596308 0.816380
vt 0.808152 0.710458
vt 0.212094 0.403689
vt 0.999754 0.212090
vt 0.999754 0.000246
vt 0.798276 0.065709
vt 0.833155 0.460928
vt 0.661770 0.585447
vt 0.833155 0.709966
vt 0.596308 0.383970
vt 0.596308 0.146627
vt 0.797784 0.212090
vt 0.797784 0.000246
vt 0.673265 0.383479
vn -0.1876 0.7947 -0.5774
vn -0.6071 0.7947 0.0000
vn 0.4911 0.7947 -0.3568
vn 0.4911 0.7947 0.3568
vn -0.1876 0.7947 0.5774
vn -0.9822 0.1876 0.0000
vn -0.3035 0.1876 -0.9342
vn 0.7946 0.1876 -0.5774
vn 0.7946 0.1876 0.5774
vn -0.3035 0.1876 0.9342
vn -0.7946 -0.1876 -0.5774
vn 0.3035 -0.1876 -0.9342
vn 0.9822 -0.1876 0.0000
vn 0.3035 -0.1876 0.9342
vn -0.7946 -0.1876 0.5774
vn -0.4911 -0.7947 -0.3568
vn 0.1876 -0.7947 -0.5774
vn 0.6071 -0.7947 0.0000
vn 0.1876 -0.7947 0.5774
vn -0.4911 -0.7947 0.3568
usemtl Material.003
s off
f 1/1/1 3/2/1 2/3/1
f 2/3/2 6/4/2 1/1/2
f 1/1/3 4/5/3 3/2/3
f 1/1/4 5/6/4 4/5/4
f 1/1/5 6/4/5 5/6/5
f 2/7/6 11/8/6 6/9/6
f 3/10/7 7/11/7 2/12/7
f 4/13/8 8/14/8 3/15/8
f 5/16/9 9/17/9 4/13/9
f 6/18/10 10/19/10 5/20/10
f 2/7/11 7/21/11 11/8/11
f 3/10/12 8/22/12 7/11/12
f 4/13/13 9/17/13 8/14/13
f 5/23/14 10/24/14 9/25/14
f 6/9/15 11/8/15 10/26/15
f 7/27/16 12/28/16 11/29/16
f 8/30/17 12/31/17 7/32/17
f 9/33/18 12/31/18 8/30/18
f 10/34/19 12/35/19 9/36/19
f 11/37/20 12/35/20 10/34/20
o Torus
v 1.074696 2.147557 0.510694
v 1.255778 2.283747 0.486339
v 1.180156 2.495363 0.448497
v 0.952336 2.489958 0.449463
v 0.887158 2.275002 0.487903
v 1.072677 2.160623 0.107872
v 1.254038 2.295008 0.139186
v 1.178867 2.503701 0.191417
v 0.951048 2.498296 0.192384
v 0.885418 2.286262 0.140750
v 1.066968 2.336357 -0.254793
v 1.249119 2.446456 -0.173360
v 1.175224 2.615855 -0.040034
v 0.947405 2.610450 -0.039068
v 0.880499 2.437711 -0.171796
v 1.058558 2.644374 -0.514591
v 1.241871 2.711906 -0.397255
v 1.169857 2.812430 -0.205836
v 0.942038 2.807025 -0.204870
v 0.873251 2.703161 -0.395691
v 1.049389 3.045413 -0.433257
v 1.057115 2.995414 1.108226
v 1.066968 2.589952 1.163306
v 1.249119 2.665005 1.048762
v 1.175224 2.777698 0.864992
v 0.947405 2.772293 0.865958
v 0.880499 2.656259 1.050326
v 1.072677 2.299419 0.884022
v 1.254038 2.414623 0.808075
v 1.178867 2.592281 0.686754
v 0.951048 2.586876 0.687720
v 0.885418 2.405877 0.809639
vt 0.672735 0.205454
vt 0.672735 0.410597
vt 0.576800 0.382247
vt 0.576800 0.205454
vt 0.387379 0.594244
vt 0.324722 0.424709
vt 0.436324 0.408461
vt 0.482724 0.534007
vt 0.563927 0.724258
vt 0.433006 0.724258
vt 0.433006 0.842841
vt 0.563927 0.842841
vt 0.136042 0.508444
vt 0.113015 0.376594
vt 0.000311 0.372474
vt 0.031406 0.550522
vt 0.769293 0.205454
vt 0.769293 0.382247
vt 0.673358 0.410597
vt 0.673358 0.205454
vt 0.672735 0.580269
vt 0.576800 0.528471
vt 0.336437 0.244347
vt 0.445000 0.274896
vt 0.324722 0.724258
vt 0.324722 0.842841
vt 0.145607 0.246776
vt 0.044323 0.197172
vt 0.769293 0.528471
vt 0.673358 0.580269
vt 0.769916 0.000311
vt 0.769916 0.181939
vt 0.865851 0.203478
vt 0.865851 0.046950
vt 0.420499 0.084343
vt 0.507251 0.156407
vt 0.880853 0.638153
vt 0.880853 0.522238
vt 0.999435 0.522238
vt 0.999435 0.638153
vt 0.228183 0.141438
vt 0.155831 0.054926
vt 0.962409 0.333333
vt 0.962409 0.176806
vt 0.866474 0.198344
vt 0.866474 0.379972
vt 0.769916 0.379972
vt 0.576177 0.000311
vt 0.940144 0.380595
vt 0.324099 0.000311
vt 0.866474 0.000311
vt 0.969919 0.916125
vt 0.863517 0.731837
vt 0.969919 0.724258
vt 0.781497 0.380595
vt 0.880230 0.527389
vt 0.769916 0.550837
vt 0.434432 0.999689
vt 0.434432 0.843464
vt 0.324722 0.888469
vt 0.298050 0.797180
vt 0.193427 0.931979
vt 0.298050 0.974089
vt 0.803755 0.820196
vt 0.096247 0.797180
vt 0.096247 0.966852
vt 0.000311 0.995202
vt 0.000311 0.848978
vt 0.880230 0.708132
vt 0.769916 0.684684
vt 0.803133 0.724258
vt 0.694849 0.724258
vt 0.694849 0.842841
vt 0.803133 0.842841
vt 0.324099 0.690643
vt 0.210707 0.619530
vt 0.132232 0.700529
vt 0.285354 0.796558
vt 0.192805 0.848978
vt 0.192805 0.995202
vt 0.096869 0.966852
vt 0.096869 0.797180
vt 0.672735 0.000311
vt 0.576800 0.028661
vt 0.513576 0.723636
vt 0.576177 0.629827
vt 0.769293 0.028661
vt 0.673358 0.000311
vn 0.5983 -0.8007 -0.0290
vn 0.9413 0.3375 0.0062
vn -0.0236 0.9992 0.0325
vn -0.9562 0.2925 0.0143
vn -0.5599 -0.8282 -0.0241
vn 0.5950 -0.7196 -0.3580
vn 0.9426 0.3061 0.1335
vn -0.0195 0.8996 0.4362
vn -0.9549 0.2611 0.1415
vn -0.5632 -0.7470 -0.3531
vn 0.5889 -0.5116 -0.6256
vn 0.9449 0.2257 0.2370
vn -0.0120 0.6445 0.7645
vn -0.9525 0.1807 0.2450
vn -0.5693 -0.5391 -0.6207
vn 0.4806 0.1848 -0.8572
vn 0.8618 0.5038 0.0596
vn -0.0134 0.6949 0.7190
vn -0.8841 0.4624 0.0670
vn -0.4961 0.1617 -0.8531
vn 0.4892 0.1291 0.8626
vn 0.8613 0.5069 -0.0355
vn -0.0204 0.7400 -0.6723
vn -0.8846 0.4655 -0.0281
vn -0.4875 0.1059 0.8667
vn 0.5950 -0.5509 0.5852
vn 0.9426 0.2409 -0.2313
vn -0.0195 0.6927 -0.7210
vn -0.9549 0.1959 -0.2233
vn -0.5632 -0.5784 0.5901
vn 0.5983 -0.7411 0.3047
vn 0.9413 0.3144 -0.1228
vn -0.0236 0.9260 -0.3768
vn -0.9562 0.2694 -0.1148
vn -0.5599 -0.7685 0.3096
usemtl Material.002
s off
f 13/38/21 18/39/21 19/40/21 14/41/21
f 14/42/22 19/43/22 20/44/22 15/45/22
f 15/46/23 20/47/23 21/48/23 16/49/23
f 16/50/24 21/51/24 22/52/24 17/53/24
f 17/54/25 22/55/25 18/56/25 13/57/25
f 18/39/26 23/58/26 24/59/26 19/40/26
f 19/43/27 24/60/27 25/61/27 20/44/27
f 20/47/28 25/62/28 26/63/28 21/48/28
f 21/51/29 26/64/29 27/65/29 22/52/29
f 22/55/30 27/66/30 23/67/30 18/56/30
f 23/68/31 28/69/31 29/70/31 24/71/31
f 24/60/32 29/72/32 30/73/32 25/61/32
f 25/74/33 30/75/33 31/76/33 26/77/33
f 26/64/34 31/78/34 32/79/34 27/65/34
f 27/80/35 32/81/35 28/82/35 23/83/35
f 28/69/36 33/84/36 29/70/36
f 29/72/37 33/85/37 30/73/37
f 30/75/38 33/86/38 31/76/38
f 31/78/39 33/87/39 32/79/39
f 32/81/40 33/88/40 28/82/40
f 34/89/41 35/90/41 36/91/41
f 34/92/42 36/93/42 37/94/42
f 34/95/43 37/96/43 38/97/43
f 34/98/44 38/99/44 39/100/44
f 34/89/45 39/101/45 35/90/45
f 35/102/46 40/103/46 41/104/46 36/105/46
f 36/93/47 41/106/47 42/107/47 37/94/47
f 37/108/48 42/109/48 43/110/48 38/111/48
f 38/112/49 43/113/49 44/114/49 39/115/49
f 39/116/50 44/117/50 40/118/50 35/119/50
f 40/120/51 13/38/51 14/41/51 41/121/51
f 41/122/52 14/42/52 15/45/52 42/123/52
f 42/109/53 15/46/53 16/49/53 43/110/53
f 43/113/54 16/50/54 17/53/54 44/114/54
f 44/124/55 17/54/55 13/57/55 40/125/55
o Cylinder_Cylinder.002
v 1.069917 2.277739 0.490669
v 1.069917 0.863152 0.490669
v 0.919665 2.277739 0.418311
v 0.919665 0.863152 0.418311
v 0.882556 2.277739 0.255725
v 0.882556 0.863152 0.255725
v 0.986534 2.277739 0.125341
v 0.986534 0.863152 0.125341
v 1.153301 2.277739 0.125341
v 1.153301 0.863152 0.125341
v 1.257278 2.277739 0.255725
v 1.257278 0.863152 0.255725
v 1.220169 2.277739 0.418311
v 1.220169 0.863152 0.418311
vt 0.850083 0.834263
vt 0.685098 0.834263
vt 0.685098 0.412217
vt 0.850083 0.412217
vt 0.000251 0.834263
vt 0.178779 0.834263
vt 0.178779 0.412217
vt 0.000251 0.412217
vt 0.321947 0.834263
vt 0.321947 0.412217
vt 0.322448 0.834263
vt 0.505567 0.834263
vt 0.505567 0.412217
vt 0.322448 0.412217
vt 0.993752 0.834263
vt 0.850584 0.834263
vt 0.850584 0.412217
vt 0.993752 0.412217
vt 0.258231 0.411715
vt 0.401399 0.297543
vt 0.401399 0.114424
vt 0.258231 0.000251
vt 0.079703 0.040998
vt 0.000251 0.205983
vt 0.079703 0.370968
vt 0.684597 0.834263
vt 0.506069 0.834263
vt 0.506069 0.412217
vt 0.684597 0.412217
vt 0.422297 0.834765
vt 0.422297 0.999749
vt 0.000251 0.999749
vt 0.000251 0.834765
vt 0.481353 0.370968
vt 0.401901 0.205983
vt 0.481353 0.040998
vt 0.659881 0.000251
vt 0.803049 0.114424
vt 0.803049 0.297543
vt 0.659881 0.411715
vn -0.4339 0.0000 0.9010
vn -0.9749 0.0000 0.2225
vn -0.7818 0.0000 -0.6235
vn 0.0000 0.0000 -1.0000
vn 0.7818 0.0000 -0.6235
vn 0.0000 -1.0000 0.0000
vn 0.9749 0.0000 0.2225
vn 0.4339 0.0000 0.9010
vn 0.0000 1.0000 -0.0000
usemtl Material.004
s off
f 45/126/56 47/127/56 48/128/56 46/129/56
f 47/130/57 49/131/57 50/132/57 48/133/57
f 49/131/58 51/134/58 52/135/58 50/132/58
f 51/136/59 53/137/59 54/138/59 52/139/59
f 53/140/60 55/141/60 56/142/60 54/143/60
f 48/144/61 50/145/61 52/146/61 54/147/61 56/148/61 58/149/61 46/150/61
f 55/151/62 57/152/62 58/153/62 56/154/62
f 57/155/63 45/156/63 46/157/63 58/158/63
f 45/159/64 57/160/64 55/161/64 53/162/64 51/163/64 49/164/64 47/165/64
o Plane
v 1.099584 7.252864 0.314001
v 1.156547 2.295533 0.315959
v 1.157088 6.013531 0.315959
v 1.157088 3.534866 0.313512
v 1.069273 2.295533 0.554084
v 0.983323 2.295533 0.313512
v 1.069273 2.295533 0.072939
v 1.156546 4.774199 0.313512
v 1.069273 6.013531 0.554084
v 0.983323 6.013531 0.313512
v 1.069273 6.013531 0.072939
v 1.069273 4.774199 0.554084
v 0.983323 4.774199 0.313512
v 1.069273 4.774199 0.072939
v 1.069273 3.534866 0.554084
v 0.983323 3.534866 0.313512
v 1.069273 3.534866 0.072939
vn -0.9403 0.0005 0.3404
vn -0.9396 -0.0431 0.3395
vn -0.9403 -0.0001 0.3404
vn -0.9397 -0.0002 0.3420
vn -0.9373 -0.0440 -0.3457
vn 0.9381 -0.0879 -0.3351
vn 0.9380 -0.0881 0.3351
vn -0.9392 0.0005 -0.3435
vn 0.9417 0.0000 -0.3364
vn 0.9417 0.0000 0.3364
vn -0.9397 -0.0002 -0.3420
vn -0.9392 -0.0001 -0.3435
usemtl Material.001
s off
f 75//65 65//65 60//65 62//65
f 59//66 69//66 61//66
f 69//67 72//67 66//67 61//67
f 72//68 75//68 62//68 66//68
f 59//69 61//69 67//69
f 59//70 67//70 68//70
f 59//71 68//71 69//71
f 61//72 66//72 70//72 67//72
f 67//73 70//73 71//73 68//73
f 68//74 71//74 72//74 69//74
f 66//75 62//75 73//75 70//75
f 70//73 73//73 74//73 71//73
f 71//74 74//74 75//74 72//74
f 62//76 60//76 63//76 73//76
f 73//73 63//73 64//73 74//73
f 74//74 64//74 65//74 75//74
